<?xml version="1.0" encoding="utf-8"?>
<!-- Generator: Adobe Illustrator 26.0.2, SVG Export Plug-In . SVG Version: 6.00 Build 0)  -->
<svg version="1.1" id="Layer_1" xmlns="http://www.w3.org/2000/svg" xmlns:xlink="http://www.w3.org/1999/xlink" x="0px" y="0px"
	 viewBox="0 0 573.7 573.7" style="enable-background:new 0 0 573.7 573.7;" xml:space="preserve">
<style type="text/css">
	.st0{fill:#1F32B0;}
	.st1{fill:#1D42FC;}
	.st2{fill:#FF0000;}
	.st3{fill:#FADB06;}
</style>
<g>
	<path class="st0" d="M279.4,584.3c6-0.3,12-0.3,18,0C291.4,584.3,285.4,584.3,279.4,584.3z"/>
	<path class="st1" d="M347.8,453.1c0.3-2.1,0-3.7-1.1-5.4c-1.1-1.7-1.2-3.9-1.2-5.9c0-1.6-0.5-2.9-1.5-3.9c-2-2-2.9-4.4-2.7-7.1
		c0.2-3.7-0.9-7-2.3-10.3c-1.4-3.3-1.3-3.5,1.5-5.8c0.8-0.7,1.1-1.5,1-2.5c0-1.1-0.2-2.2-0.6-3.2c-1.6-3.9-2.9-7.9-3.6-12.1
		c-0.3-1.6-1-2.1-2.7-1.9c-3.8,0.5-5.1-1.2-4.1-4.8c0.2-0.9,0.5-1.8,1.7-0.9c0.4,0.3,1.1,0.3,1.6,0.5c0.5,0.3,0.9,0.9,1.4,0.2
		c0.4-0.6,0.9-1.2,0.5-2c-0.5-1.2-1.2-2.3-2.4-3c-0.9-0.6-1.7-1.4-1.9-2.5c-0.5-2.8-2-5.1-3.6-7.3c-1.1-1.5-1.9-3.1-2.5-4.8
		c-0.3-0.8-0.7-1.6,0.2-2.3c0.6-0.5,0.5-1.5,0.1-1.8c-1-0.9-0.8-2.3-0.5-3c0.8-2.2-0.4-3.6-1.6-5.1c-1.5-1.8-3-3.5-4.5-5.3
		c-0.4-0.5-0.9-1.1-0.4-1.7c0.6-0.7,1.1-0.2,1.7,0.2c0.7,0.6,1.6,0.8,2.2,0.3c0.7-0.6-0.2-1.3-0.5-1.9c-0.6-1.2-1.3-2.4-2-3.6
		c-0.6-1.1-1.1-2.5-2.8-1.2c-0.1,0.1-0.4,0-0.6-0.1c-4.6-0.9-7.2-6-5.1-10.3c0.3-0.6,0.7-1.2,0.4-1.8c-1.3-2.6-0.3-5.1,0.6-7.5
		c0.6-1.6,0.9-3.2-1.2-4.1c-0.6-0.3-1-1-0.7-1.7c1.3-2.4-0.4-4.8,0-7.3c-0.7,0.9-1.3,2.5-2.2,2.7c-2.6,0.5-1.9,2.5-2,3.9
		c-0.1,3.6-0.4,7.1,1.5,10.6c1.6,2.8,0.2,5.6-1.5,8.1c-0.5,0.7-1.3,1.2-0.7,2.2c0.3,0.6-0.4,1-0.8,1.4c-0.7,0.5-0.9-0.3-1.4-0.6
		c-4.1-2.4-6.3-7.1-10.9-8.9c-0.9-0.4-1.5-1.2-1.9-2c-0.6-1.2-1-2.4-2.8-2.6c-1.2-0.1-1.2-1.8-1.3-2.9c-0.2-3.3-0.8-6.4-3.2-8.9
		c-1.1-1.1-1.9-2.4-2.3-3.9c-1.1-3.4-3.3-6.2-5.1-9.3c-1.6-2.7-1.9-5.6-1.6-8.6c0.2-1.7,1.2-2.9,2.7-3.7c1.4-0.7,2.5-0.6,3.2,0.9
		c0.3,0.5,0.5,1.1,1.1,1.2c0.8,0.2,1.8-0.4,2.4,0.6c0.8,1.4,1.5,2.9,1.6,4.5c0.1,2.3,1.1,3.9,3.4,4.4c1.3,0.3,2,0.6,2.3,2
		c0.6,2.4,4.7,4.2,7,3c2.9-1.5,5.2-3.9,7.1-6.6c0.1-0.2,0.1-0.5,0.1-0.9c-1.2,0.1-1.1,1.2-1.7,1.6c-2.2,1.4-3.7,4.2-7,3.7
		c-1-0.1-1.6-0.4-2.2-1.1c-2.2-2.7-3.9-6.2-3.8-9.3c0.1-2.9-1.3-3-2.8-4c-2.7-1.9-3.5-5-2-8.2c0.3-0.7,0.8-1.4,1.3-2
		c1.3-2.1,4-2.1,5.1,0.1c1,2.1,2.9,3.4,4.2,5.2c0.5,0.6,1,0.7,1.7,0.3c1.3-0.6,2.5-0.3,3.7,0.5c0.5,0.3,1,0.9,1.3-0.1
		c0.3-0.7-0.2-0.8-0.8-1.1c-3.2-1.8-5.9-4.3-7.7-7.6c-0.4-0.7-0.5-1.5-1.3-2c-3.2-2.2-3.3-2.7-1.2-6.1c-1.9-0.2-2.6-1.5-2.7-3.1
		c-0.1-1-0.3-1.4-1.5-1.3c-1,0.1-2.2,0.3-3.1-0.6c-0.5-0.4-0.8,0-1.1,0.3c-0.4,0.4-0.8,1-1.5,0.6c-0.6-0.4-0.3-1.1-0.4-1.6
		c-0.8-4.9,1.8-8.6,4.1-12.5c0.7-1.2,1.8-1.7,3.1-1.5c1.1,0.1,1.2-0.3,1.2-1.2c-0.1-1.3-0.8-0.5-1.3-0.6c-1.5-0.1-3,0.2-4.5,0.6
		c-0.8,0.2-1.3,0.3-1.6,1.2c-0.4,1.1-1.2,1.7-2.4,1.2c-1.1-0.4-2.1-1.1-2-2.5c0-0.5,0.3-1-0.3-1.3c-1.2-0.6-1.9-1.4-1.6-2.9
		c0.1-0.4-0.6-1.3-0.7-1.2c-0.8,0.9-1.9-0.8-2.2,0.1c-0.3,0.9-1.8,1.4-1.1,2.5c0.6,1,1,2.1,2,2.8c1.5,1.1,2,2.6,1.7,4.4
		c-0.4,1.9-0.1,3.7,0.5,5.6c0.2,0.5,0.3,1,0.3,1.5c0.1,1,0.4,2.3-0.6,2.8c-1.1,0.6-1.4-0.9-2.1-1.4c-2.3-1.9-3.4-4.4-3.9-7.3
		c-0.5-2.7-1.4-5.3-1.6-8.1c-0.1-0.9-0.6-1.9,0.7-2.5c0.1-0.1,0.3-0.4,0.3-0.5c-1.1-2-0.6-4.4-1.9-6.4c-0.7,0.3-0.5,1.7-1.5,1.4
		c-0.9-0.2-0.8-1.2-1-2c-0.2-1-0.4-2-0.6-2.9c-0.8-0.1-0.9,0.5-1.1,0.9c-1.4,1.9-3.2,2.6-5.5,2c-1.4-0.4-2.7-1.5-4.3-0.4
		c-0.3,0.2-1.1-0.5-1.8-0.8c1.6,5.8,3,11.5,5.5,16.8c0.5,1.1,0.9,2.3,0.9,3.6c0,0.4,0,0.7-0.4,0.9c-0.4,0.2-0.7-0.1-0.9-0.3
		c-0.7-0.6-1.1-1.4-1.4-2.2c-1.5-3.3-2.4-6.8-3.3-10.3c-0.3-1.1-0.2-3-1.8-2.7c-1.4,0.3-1.2,2.1-1.2,3.4c0,1.7,0.6,3.3,1.2,4.8
		c0.2,0.6,0.8,1.6,0,1.9c-0.8,0.3-1.8-0.2-2.2-1c-1-1.8-2.4-3.5-2.7-5.4c-0.5-4-2.7-7-4.8-10.1c-1.1-1.7-0.7-3.5-1.1-5.2
		c-0.2-0.8,0.5-0.8,1.2-0.8c2.6,0.3,4.6-0.2,5.9-2.9c0.4-0.9,2.3-1.1,2.3-2.7c0-0.3,0-0.6,0-0.8c-0.8-0.3-1.1,0.3-1.4,0.7
		c-0.8,1-1.5,2.1-2.4,3.1c-0.9,1-1.9,1.8-3.4,1.3c-1.6-0.6-1.1-2-1.1-3c-0.1-3.1,1.2-5.9,2.4-8.6c0.8-2.1,0.7-4.4,2-6.4
		c0.5-0.7-0.3-1.1-1.2-1.4c-0.2,4.6-2.5,8.4-4.8,12.1c-1.4,2.4-2.1,5.1-3.2,7.6c-0.4,1.1-1,2.2-2.3,2.4c-1.3,0.2-1.6-1-2.2-1.8
		c-1.4-1.5-2.9-2.9-4.2-4.4c-2-2.3-0.4-6.3,2.5-7.1c2.1-0.6,4.2-1.7,5.7-3.4c0.7-0.8,2.6-0.5,2.2-1.9c-0.2-0.8-1.4-1.7-2.4-2
		c-5.1-1.6-4.6-5.8-4.8-9.7c-0.1-1.4,0.1-2.9-1.4-4.2c-0.4,1.5-0.4,2.7-1.2,3.7c-0.3,0.4-0.7,0.8-1.2,0.8c-0.6,0-1-0.7-0.9-1
		c0.5-1.9-0.9-3.4-1.5-4.9c-0.6-1.7,0.5-3.8-1.4-5.5c0.2,3.9,0.3,7.4,1.6,10.8c0.3,0.8,0.6,1.7,0.5,2.5c-0.8,4-0.4,8.1,0,12.1
		c0,0.5,0.3,1.1-0.2,1.4c-0.6,0.3-1.1-0.2-1.6-0.5c-1-0.7-1.9-1.6-2.2-2.9c-0.2-0.7-0.4-1.4-0.6-2.1c-1.1-5.6-3.7-10.5-7.8-14.5
		c-1.8-1.8-2.7-3.9-2.9-6.4c-0.1-0.9-0.3-1.7-0.8-2.5c-1.9-2.7-3.5-5.8-6.7-7.3c-1.8-0.9-2.4-2.4-2.7-4.1c-1.4-6.7-3-13.3-5.5-19.6
		c-1-2.4-0.7-5.1-1-7.7c-0.1-0.6,0.1-1.4-0.4-1.9c-2-1.9-2.9-4.6-4.4-6.8c-1.2-1.9-2-3.8-1.4-6.1c0.6-2.2,0.5-4.4,0-6.7
		c-0.2-0.9-0.3-1.9,0-2.8c1.2-3.3,2.8-6.5,3.6-10c0.2-0.7,0.8-1.1,1.5-1c1.9,0.3,2.7-0.9,3.6-2.2c1.3-2,2.8-1.9,4.2,0
		c0.6,0.9,0.7,1.9,0.9,2.9c0.6,3.5,2.7,5,6.3,4.4c3.3-0.6,3.4-0.5,4.6,2.6c0.7,1.9,0.7,3.8,1.2,5.7c0.6,2.3,1.3,2.5,3,0.8
		c0.9-0.9,1.8-1.8,1.9-3.1c0.1-1.2,0.6-1.3,1.5-0.7c0.9,0.5,1.4,1.2,1.8,2.1c1.7,3.9,3.9,7.4,6.3,10.9c1.1,1.6,1.9,3.4,2.5,5.3
		c0.4,1.3,0.9,2.6,1.6,3.8c1.2,2.2,2.4,2.3,3.8,0.2c1.3-2,2.8-2.4,5-1.7c3,0.9,6,1.7,9,2.3c2.1,0.4,2.9,1.7,3.1,3.6
		c0.2,2.5,0.5,5,0.7,7.6c0.1,1.8,0.7,3.2,2.2,4.3c1.4,1,2.4,2.2,2.6,4c0.2,1.4,1.2,2.3,2.2,3.2c3.8,3.9,7.9,7.5,12.5,10.4
		c1.2,0.7,2.4,1,3.7,0.5c1.5-0.6,3-0.5,4.3,0.4c1,0.7,2,0.7,2.9-0.3c0.3-0.3,0.6-0.6,0.9-0.9c2.8-2.3,2.8-2.3,1.4-5.7
		c-1.5-3.4-0.9-6.8-0.2-10.2c0.3-1.3,1.1-2.4,2.3-2.6c1.4-0.2,2.9,0.2,3.8,1.6c1.7,2.5,3,5.3,3.5,8.3c0.3,1.4,0.6,2.1,2.3,2.3
		c2.4,0.2,5.1,3.9,5.1,6.5c0,2.8,0,5.7-0.1,8.5c0,1.5,0.5,2.6,2.1,2.8c3,0.4,4.5,2.4,5.6,4.9c2.8,6,5.6,12.1,8.4,18.1
		c1.2,2.6,2,5.4,2.7,8.3c0.4,1.8,1,3.5,2.2,4.9c2.1,2.5,2.8,5.3,2.4,8.4c-0.3,2,0.5,3.6,1.9,5.1c1,1.1,1.9,2.4,2.8,3.6
		c1.2,1.8,1.7,3.8,1,6c-1.2,3.4-1,6.7,0.4,10.1c2.8,6.7,3.5,13.9,4.3,21c0.8,6.9,3.1,13,6.7,18.8c1.2,1.9,2.1,4,2.9,6.1
		c0.5,1.4,1,2.9-0.8,4c-0.8,0.5-0.6,1.6-0.4,2.4c0.3,1.6,0.6,3.3,1,4.9c0.4,1.8,1.1,3.1,3.2,3.9c2.9,1.2,4.8,4,5.7,6.8
		c1.3,4.2,3.4,7.9,6,11.3c0.5,0.6,0.9,1.4,1.2,2.1c1.8,4.2,1.2,5.7-3.3,6.9c-1.4,0.4-1.6,0.9-0.7,2.1c1.2,1.6,2.7,3,3.6,4.9
		c0.8,1.7,0.7,3.3-0.6,4.6c-2.2,2.2-2.4,4.4-1,7.1c1.1,2.1,1.3,4.3,0.6,6.5c-0.6,1.9-0.2,3.6,0.5,5.4c1.4,3.6,3.6,6.8,5.2,10.3
		c2.5,5.6,3.2,11.2,1.8,17.2c-0.5,2.4-0.4,4.8-0.3,7.1c0.1,2.7,0,5.3-0.9,7.9c-0.5,1.4-0.4,3,0.4,4.4c2.1,3.7,3.1,7.4,1.5,11.6
		c-0.5,1.3-0.3,2.9-0.5,4.3c-0.4,2.4-1.5,4.5-3.1,6.4c-1.5,1.9-2,4-2.1,6.4c-0.2,3.9,0,7.8-0.7,11.7c-0.4,2.5-1.6,4.6-2.6,6.9
		c-0.6,1.5-1.7,1.7-2.6,0.4c-1.1-1.6-2.6-2.2-4.4-2.8c-2.7-0.9-5.5-2.9-6-5.2c-0.6-2.9-1.5-6.1-1.3-9.2
		C345.7,453.2,346.1,452.1,347.8,453.1z M305.6,288c0.6,0.8,1.2,1.5,1.9,2.3C307.9,287.3,307.9,287.3,305.6,288z M304.9,313.7
		c-0.1-0.6-0.1-1.1-0.2-1.7c-0.1-0.5,0.1-1.2-0.4-1.6c-0.1-0.1-0.5,0-0.5,0.1c-0.4,0.6-0.4,1.2-0.2,1.8
		C303.8,312.9,304.1,313.5,304.9,313.7z"/>
	<path class="st2" d="M497.7,169.2c5.6,0,10.5-0.1,15.5,0c2.1,0.1,3-0.5,3.6-2.6c1.1-4.2,2.6-8.3,4-12.4c0.2-0.6,0.4-1.1,0.9-2.2
		c1.7,5.2,3.3,9.9,4.7,14.7c0.6,1.9,1.4,2.6,3.4,2.6c5-0.2,10.1-0.1,15.8-0.1c-4.8,3.5-9,6.6-13.4,9.6c-1.2,0.8-1.4,1.5-1,2.8
		c1.7,4.9,3.2,9.9,5,15.3c-4.5-3.2-8.7-6.1-12.7-9.1c-1.4-1-2.3-1.2-3.8-0.1c-4,3.1-8.2,5.9-12.8,9.2c0.6-2,1.1-3.6,1.6-5.1
		c1.1-3.4,2.1-6.8,3.3-10.1c0.5-1.4,0.3-2.2-0.9-3c-3.7-2.5-7.3-5.2-10.9-7.8C499.3,170.5,498.8,170,497.7,169.2z"/>
	<path class="st2" d="M226.2,520.9c1.8,5.6,3.5,10.5,5,15.5c0.4,1.4,1.1,1.8,2.5,1.8c5.3-0.1,10.5,0,16,0.4
		c-2.4,1.8-4.8,3.5-7.2,5.3c-1.9,1.4-3.7,2.8-5.7,4c-1.2,0.8-1.3,1.6-0.9,2.9c1.5,4.4,2.9,8.9,4.4,13.4c0.2,0.5,0.5,0.9,0.1,1.5
		c-4-2.8-8.1-5.6-12-8.6c-1.6-1.3-2.7-1.4-4.4-0.1c-3.9,3-8,5.8-12.6,9c1.8-5.4,3.3-10.3,4.9-15.1c0.5-1.5,0.3-2.3-1-3.2
		c-4.3-2.9-8.4-6-12.5-9.5c2.1,0,4.1,0,6.2,0c3.3,0,6.5-0.1,9.8,0c1.3,0,1.9-0.4,2.3-1.7c1.3-4.4,2.8-8.8,4.3-13.2
		C225.5,522.6,225.8,522,226.2,520.9z"/>
	<path class="st2" d="M11.2,257.4c5.2,0,10.4-0.1,15.6,0c1.5,0,2.2-0.4,2.6-1.9c1.3-4.3,2.7-8.5,4.1-12.8c0.2-0.7,0.5-1.3,0.9-2.5
		c1.8,5.3,3.4,10.1,4.9,15c0.5,1.8,1.3,2.2,3,2.2c5.1-0.1,10.2,0,15.6,0.4c-1.5,1.1-2.9,2.2-4.4,3.2c-2.9,2.1-5.7,4.2-8.7,6.2
		c-1,0.7-1.2,1.4-0.8,2.5c1.7,5,3.3,10,5.2,15.6c-3.7-2.6-6.8-4.9-10-7.1c-1.6-1.1-3.2-3.1-4.8-3.1c-1.6,0-3.2,2-4.8,3.1
		c-3.1,2.2-6.2,4.4-9.9,7c1.2-3.8,2.3-7.2,3.4-10.5c0.4-1.4,0.8-2.8,1.4-4.1c1-2,0.3-3.1-1.4-4.2c-4.1-2.8-8.1-5.8-12.2-8.7
		C11.1,257.7,11.1,257.5,11.2,257.4z"/>
	<path class="st2" d="M413.9,528.1c1.5-4.6,2.8-8.7,4.2-12.8c1.4-4.3,1.4-4.3-2.3-7c-3.6-2.6-7.1-5.1-11.2-8.1
		c5.7,0,10.8-0.1,15.8,0c1.9,0,2.8-0.4,3.4-2.4c1.4-4.8,3.1-9.6,4.8-15c1.8,5.4,3.5,10.2,4.9,15.1c0.5,1.7,1.2,2.3,3,2.2
		c5.1-0.1,10.3,0,15.5,0.4c-3.7,2.7-7.5,5.4-11.2,8.1c-3.1,2.2-3.1,2.2-1.9,5.8c1.4,4.3,2.8,8.6,4.5,13.5c-3.6-2.5-6.6-4.7-9.6-6.8
		c-1.7-1.2-3.3-3.4-5.2-3.3c-1.7,0.1-3.3,2.1-5,3.2C420.5,523.5,417.5,525.6,413.9,528.1z"/>
	<path class="st2" d="M204.3,66.8c-4.8-3.4-9.1-6.4-13.3-9.5c-1-0.8-1.7-0.8-2.8,0c-4.2,3.1-8.5,6.1-13.3,9.6
		c1.7-5.2,3-9.8,4.7-14.3c0.8-2.2,0.4-3.4-1.6-4.7c-4-2.7-7.9-5.6-11.8-8.4c0.5-0.8,1.1-0.5,1.6-0.5c4.7,0,9.4-0.1,14.1,0
		c1.6,0,2.2-0.5,2.7-2c1.2-4.2,2.7-8.4,4-12.6c0.2-0.7,0.5-1.3,0.9-2.6c1.5,4.5,2.7,8.3,4,12.2c1.6,5,1.6,5,6.8,5
		c4.1,0,8.2,0,12.5,0c0,0.9-0.7,1.1-1.2,1.4c-3.8,2.8-7.6,5.6-11.5,8.2c-1.2,0.8-1.4,1.5-1,2.8C201,56.3,202.5,61.2,204.3,66.8z"/>
	<path class="st2" d="M519.1,255.7c5.1,0,10.1-0.1,15.2,0c1.8,0,2.6-0.5,3.2-2.3c1.4-4.8,3.1-9.6,4.9-15c1.2,3.5,2.2,6.5,3.1,9.4
		c0.7,2.1,1.4,4.1,2,6.2c0.3,1.3,1,1.7,2.3,1.6c4.6-0.1,9.3,0,13.9,0c0.7,0,1.4,0,2.8,0c-4.9,3.5-9.2,6.7-13.5,9.7
		c-1.1,0.7-1.4,1.3-0.9,2.6c1.6,4.6,3.1,9.3,4.6,14c0.1,0.3,0.3,0.7,0,1.2c-4.2-3-8.4-5.9-12.5-8.9c-1.3-1-2.1-1.1-3.5,0
		c-4.1,3.1-8.3,6-13,9.3c1.3-3.9,2.4-7.2,3.4-10.5c0.4-1.2,0.8-2.3,1.1-3.5c1.2-3.8,1.7-2.6-1.7-5.1c-3.8-2.8-7.6-5.5-11.4-8.2
		C519,256.1,519.1,255.9,519.1,255.7z"/>
	<path class="st2" d="M44.2,197.4c1.7-5.1,3-9.8,4.8-14.2c0.9-2.3,0.4-3.4-1.6-4.7c-4-2.7-7.9-5.6-12.1-8.6c1.4-0.5,2.4-0.3,3.5-0.3
		c4.1,0,8.1-0.1,12.2,0c1.7,0.1,2.5-0.4,3.1-2.2c1.5-4.9,3.1-9.7,4.9-15.1c1.8,5.3,3.4,10.1,4.8,14.9c0.5,1.8,1.4,2.5,3.3,2.4
		c5.1-0.2,10.1-0.1,15.3,0.4c-3.3,2.4-6.7,4.9-10,7.3c-4.4,3.1-4.4,3.1-2.6,8.3c1.3,3.7,2.5,7.5,3.9,11.9c-3.6-2.6-6.8-4.8-9.9-7
		c-1.6-1.1-3.2-3.3-5-3.1c-1.7,0.1-3.2,2.1-4.8,3.2C50.9,192.7,47.8,194.9,44.2,197.4z"/>
	<path class="st2" d="M91.5,459.7c-4.7-3.4-8.9-6.3-13-9.3c-1.3-1-2.2-1-3.5,0c-4.1,3.1-8.3,6-13,9.3c1.7-5.2,3-9.8,4.8-14.3
		c0.9-2.3,0.4-3.4-1.6-4.7c-3.5-2.3-6.9-4.8-10.3-7.3c-0.6-0.4-1.1-0.8-2.1-1.6c5.6,0,10.5-0.1,15.5,0.1c2.2,0.1,3.1-0.6,3.7-2.7
		c1.3-4.7,3-9.3,4.7-14.5c1.8,5.4,3.4,10.2,4.9,15c0.5,1.8,1.3,2.3,3.1,2.3c5.1-0.1,10.2,0,15.5,0.4c-3.4,2.4-6.7,4.9-10.1,7.3
		c-4.3,3.1-4.3,3-2.7,8C88.8,451.3,90,455.2,91.5,459.7z"/>
	<path class="st2" d="M525.1,376.9c1.6-5.1,2.9-9.6,4.6-14c0.9-2.4,0.5-3.7-1.6-5.1c-4-2.6-7.8-5.5-11.7-8.3
		c0.4-0.8,1.1-0.5,1.6-0.5c4.9,0,9.7-0.1,14.6,0c1.2,0,1.8-0.4,2.1-1.6c1.4-4.5,2.9-8.9,4.3-13.4c0.2-0.6,0.2-1.2,1-1.8
		c1.6,4.8,3.3,9.5,4.6,14.3c0.6,2.1,1.6,2.6,3.6,2.5c5-0.1,9.9,0,15.1,0.4c-3.4,2.4-6.7,4.9-10.1,7.3c-4.3,3.1-4.2,3-2.6,7.9
		c1.3,3.8,2.5,7.7,3.9,12.2c-1.9-1.3-3.3-2.3-4.6-3.3c-1-0.7-2-1.4-3-2.1c-2.4-1.6-4.6-4.7-7.1-4.6c-2.5,0.1-4.7,3-7.1,4.7
		C530.3,373.2,528,374.9,525.1,376.9z"/>
	<path class="st2" d="M467.9,75.2c1.5,4.7,3.2,9.3,4.5,14c0.6,2.2,1.6,2.8,3.8,2.7c4.9-0.2,9.8-0.1,14.8-0.1
		c-0.1,0.9-0.8,1.1-1.3,1.4c-3.8,2.8-7.6,5.6-11.5,8.2c-1.2,0.8-1.3,1.6-0.9,2.9c1.7,4.8,3.2,9.7,5,15.2c-1.7-1.1-2.9-1.9-4-2.8
		c-3.1-2.2-6.3-4.4-9.3-6.7c-1-0.8-1.6-0.7-2.6,0c-4.2,3.1-8.4,6.1-12.8,9.2c-0.5-1,0.1-1.7,0.3-2.3c1.3-4.2,2.6-8.4,4.1-12.6
		c0.5-1.5,0.2-2.2-1-3c-4.3-3-8.5-6.1-12.6-9.5c1.8,0,3.5,0,5.3,0c3.6,0,7.1,0,10.7,0c1.3,0,1.9-0.3,2.3-1.7c1.5-5,3.2-10,4.9-15
		C467.5,75.2,467.7,75.2,467.9,75.2z"/>
	<path class="st2" d="M38,333.5c1.6,4.9,3.2,9.7,4.6,14.5c0.5,1.9,1.4,2.4,3.3,2.4c5-0.2,10.1-0.1,15.3,0.4c-3.7,2.7-7.4,5.4-11.1,8
		c-3.1,2.3-3.1,2.2-1.9,6c1.4,4.2,2.8,8.5,3.8,13c-4-2.8-8-5.5-11.9-8.5c-1.6-1.3-2.7-1.4-4.4-0.1c-3.9,3-7.9,5.7-12.2,8.8
		c0.2-2.1,0.9-3.8,1.5-5.4c1.1-3.3,2.1-6.6,3.3-9.9c0.4-1.2,0.2-1.8-0.8-2.5c-3.7-2.6-7.4-5.3-11.1-8c-0.6-0.4-1.2-0.9-2.3-1.8
		c5.7,0,10.8-0.1,15.9,0c1.8,0,2.5-0.5,3-2.2c1.3-4.3,2.7-8.5,4.1-12.8C37.2,334.8,37.2,334.1,38,333.5z"/>
	<path class="st2" d="M361.6,541c-4.3,3.1-8.5,6.2-12.8,9.2c-1.3,0.9-1.5,1.6-1,3c1.7,4.8,3.2,9.7,5,15c-4.5-3.2-8.6-6-12.6-9
		c-1.5-1.1-2.6-1.2-4.1,0c-3.9,3-8,5.7-12.5,8.9c1.6-5,2.9-9.5,4.6-13.9c0.9-2.3,0.3-3.4-1.6-4.7c-3.6-2.3-7-4.9-10.4-7.4
		c-0.5-0.3-1.1-0.6-1.4-1.5c5.2,0,10.4-0.1,15.5,0c1.7,0,2.5-0.4,3.1-2.1c1.4-4.8,3.1-9.6,4.9-15.1c1.1,3.3,2,6.1,2.9,8.8
		c0.7,2.2,1.5,4.4,2.1,6.6c0.4,1.5,1.1,1.8,2.6,1.8c5.2-0.1,10.4,0,15.6,0C361.5,540.7,361.6,540.9,361.6,541z"/>
	<path class="st2" d="M512.5,461.4c-4.1-2.9-8.3-5.8-12.3-8.8c-1.4-1-2.3-1.1-3.7,0c-4,3.1-8.2,5.9-12.7,8.6
		c1.1-3.3,2.2-6.6,3.2-9.9c0.7-2.2,2.5-4.6,1.7-6.5c-0.7-1.8-3.3-2.8-5.2-4.1c-2.9-2.1-5.8-4.2-8.6-6.7c5,0,9.9-0.1,14.9,0.1
		c2.2,0.1,3.1-0.6,3.7-2.7c1.1-4.2,2.7-8.2,4-12.3c0.2-0.5,0.3-1.1,0.9-1.6c1.6,4.8,3.3,9.5,4.6,14.2c0.6,2,1.4,2.6,3.4,2.5
		c5-0.2,10.1-0.1,15.2,0.4c-3.7,2.7-7.4,5.4-11.2,8.1c-3.2,2.3-3.2,2.3-2,5.9c1.4,4.2,2.8,8.5,4.2,12.7
		C512.7,461.1,512.6,461.2,512.5,461.4z"/>
	<path class="st2" d="M129.9,121c-4.1-2.9-8.3-5.8-12.3-8.8c-1.4-1.1-2.3-1-3.7,0c-4,3-8.2,5.9-12.8,9.2c1.3-3.9,2.3-7.2,3.4-10.6
		c0.4-1.2,0.6-2.6,1.2-3.7c1.3-2.3,0.3-3.5-1.6-4.8c-4-2.6-7.8-5.6-11.6-8.8c5.1,0,10.2-0.1,15.3,0c1.8,0,2.5-0.5,3.1-2.2
		c1.5-4.9,3.1-9.7,5.1-14.6c1.6,4.8,3.3,9.6,4.7,14.4c0.5,1.8,1.3,2.4,3.1,2.3c5-0.1,10.1,0,15.3,0.4c-1.4,1-2.8,2.1-4.2,3.1
		c-2.9,2.1-5.7,4.2-8.7,6.2c-1.1,0.8-1.3,1.5-0.8,2.7c1.7,4.9,3.2,9.8,4.9,14.7C130.2,120.8,130,120.9,129.9,121z"/>
	<path class="st2" d="M392.3,24.8c1.6,4.9,3.2,9.7,4.7,14.6c0.5,1.6,1.2,2.1,2.9,2c5.1-0.1,10.2,0,15.8,0c-1.5,1.7-3.1,2.5-4.5,3.6
		c-2.8,2.1-5.7,4.2-8.7,6.2c-1.1,0.8-1.3,1.4-0.8,2.7c1.7,4.9,3.3,9.8,4.9,14.8c-0.7,0.5-1-0.1-1.3-0.4c-3.9-2.8-7.9-5.6-11.8-8.5
		c-1.1-0.8-1.8-0.7-2.8,0c-4.2,3.1-8.4,6.1-12.9,9.3c0.1-2,0.8-3.5,1.3-5c1.1-3.5,2.2-6.9,3.4-10.3c0.5-1.2,0.3-1.9-0.8-2.7
		c-3.8-2.6-7.5-5.4-11.3-8.1c-0.6-0.4-1.1-0.8-2.1-1.6c5.7,0,10.8-0.1,15.9,0c1.9,0.1,2.6-0.5,3.1-2.3c1.2-4.2,2.6-8.3,4-12.4
		C391.4,26.1,391.4,25.3,392.3,24.8z"/>
	<path class="st2" d="M118.3,496.9c5.3,0,10.6,0,15.9,0c1.3,0,1.9-0.3,2.3-1.6c1.5-5,3.2-10,5.1-15.6c1.4,4.1,2.5,7.6,3.7,11.1
		c0.7,2,0.7,4.8,2.3,5.9c1.5,0.9,4.1,0.3,6.2,0.3c3.7,0,7.3,0,11.3,0c-0.5,1.1-1.4,1.5-2.1,2c-3.6,2.6-7.1,5.2-10.8,7.7
		c-1.1,0.7-1.3,1.4-0.9,2.6c1.6,4.6,3.1,9.3,4.6,14c0.1,0.3,0.4,0.6-0.1,1.1c-4.1-2.9-8.2-5.8-12.2-8.8c-1.3-1-2.2-1.2-3.7-0.1
		c-4,3.1-8.2,5.9-12.7,8.6c1.1-3.3,2.1-6.6,3.2-9.9c0.4-1.3,0.7-2.7,1.3-3.9c1.1-2.1,0.3-3.3-1.5-4.5c-4.1-2.7-8-5.7-12-8.5
		C118.1,497.2,118.2,497.1,118.3,496.9z"/>
	<path class="st2" d="M276.6,47.8c1.8-5.5,3.3-10.3,5-15.1c0.6-1.5,0.2-2.3-1.1-3.2c-4.2-2.9-8.3-6-12.5-9c0.5-0.8,1.1-0.4,1.6-0.5
		c4.8,0,9.6-0.1,14.4,0c1.2,0,1.8-0.4,2.1-1.6c1.3-4.2,2.7-8.4,4.1-12.6c0.3-0.9,0.6-1.7,1.1-3c1.7,5.2,3.4,10,4.8,14.8
		c0.5,1.8,1.4,2.4,3.3,2.4c5-0.2,10.1-0.1,15.8-0.1c-4.8,3.4-8.9,6.5-13.2,9.5c-1.3,0.9-1.6,1.6-1.1,3.1c1.7,4.8,3.2,9.7,5,15.2
		c-4.6-3.3-8.8-6.1-12.8-9.1c-1.4-1.1-2.4-1.1-3.8,0C285.4,41.7,281.2,44.5,276.6,47.8z"/>
	<path class="st1" d="M308.2,87.8c-0.6,12.6-3.8,23.9-9.6,34.6c-1.3,2.5-4.2,2.9-6.5,4c-1.5,0.7-3.2,0.9-4.8,1.4
		c-1.8,0.5-2.3-0.2-2.4-1.9c-0.1-3.2-1.6-5.6-4.2-7.5c-1.3-0.9-2.8-1.2-4.3-1.1c-4.3,0.1-8.5-0.4-12.4-2.5c0.4-0.8,0.9-0.4,1.3-0.4
		c3.5,0.7,6.9,0.7,10.2-1c5.2-2.7,9.9-1.5,14.5,1.4c2.5,1.6,3.2,1.5,5.4-0.5c4.3-4,7.1-8.9,9.2-14.3C306,96.3,306.7,92.2,308.2,87.8
		z"/>
	<path class="st1" d="M293,341.9c-0.7,2.5-0.2,4.9,0.3,7.4c0.5,2.4-0.4,4.8-2,6.7c-2.1,2.5-5.5,1.9-7.4-0.7
		c-2.6-3.7-5.3-7.4-7.7-11.2c-0.2-0.4-0.5-0.7-0.7-1.1c-2-3.4-1.6-4.3,2.2-4.8c2-0.2,4.1,0,5.3-2.2c0.4-0.8,1.1-0.5,1.5,0.2
		c1.5,2.5,3.6,3.3,6.6,2.7C293.2,338.5,292.6,340.7,293,341.9z"/>
	<path class="st1" d="M351.5,230.7c0-3.3,0-6.5,0-9.8c0-3.4,1.3-4.6,4.5-4.6c1.8,0,3.6,0,5.4,0c3,0.1,5,3.2,3.8,5.9
		c-0.2,0.4-0.5,0.8-0.9,0.8c-0.7,0-1.1-0.3-1.2-1c-0.2-1.6-1.3-1.9-2.7-1.8c-1.4,0.1-2.8,0.1-4.1,0c-1.9-0.1-2.8,0.6-2.7,2.6
		c0.1,5.4,0.1,10.7,0,16.1c0,2,1,2.5,2.6,2.6c1.4,0,2.9-0.2,4.3-0.1c2,0.1,2.7-0.8,2.7-2.7c0-1.8,0.3-3.1-2.4-2.4
		c-2.4,0.7-5.1-1.4-5.9-4c-0.8-2.3,0.5-5.7,2.5-6.8c0.8-0.4,1.8-0.8,2.2,0.3c0.5,1.3,0.4,2.7-1.1,3.4c-0.9,0.4-2.2,0.3-1.8,1.8
		c0.4,1.4,1.6,1,2.6,1c1.1,0,2.2,0,3.3,0c0.8,0,1.4-0.4,1.4-1.3c0.1-0.8-0.4-1.2-1.1-1.3c-0.6-0.1-1.2-0.2-1.5-0.8
		c-0.5-1.1-0.9-2.3,0.1-3.2c1-0.8,1.9,0,2.6,0.7c1.8,1.9,2.7,4.1,1.6,6.7c-0.5,1.1-0.4,2.1-0.4,3.2c0.2,9.2-0.2,9.4-9.3,9.2
		c-0.2,0-0.4,0-0.7,0c-2.5-0.1-3.9-1.4-4-3.9C351.5,237.7,351.5,234.2,351.5,230.7z"/>
	<path class="st1" d="M462.5,373.6c-0.2,6.3-0.6,5.6,5.1,5.6c2.4,0,4.8,0,7.2,0c1.4,0,2.8,0.3,3.6-1.6c0.3-0.8,1.4-0.7,1.8,0.3
		c1.1,2.6-0.5,5.1-3.3,5.1c-4.3,0.1-8.6,0.1-12.8,0c-2.4,0-3.8-1.4-3.8-3.8c0-2.8,0-5.5,0-8.3c0-2,0.4-2.2,2.4-1.4
		c1.9,0.7,4,0.2,6,0.3c0.7,0,1-0.6,0.9-1.2c-0.1-0.6-0.3-1.2-1-1.2c-2.1,0.1-4.2-0.6-6.1,0.5c-0.7,0.4-1.2,0.5-1.8-0.1
		c-0.6-0.6-0.2-1.2,0.1-1.8c1-2.1,3.7-3.4,6.2-3c2.4,0.4,4.6,2.6,4.6,5.1c0,1.9,0.8,2,2.2,1.9c1-0.1,2,0,3,0c0.7,0,1.3-0.2,1.4-1.1
		c0-0.8-0.4-1.4-1.2-1.5c-0.9-0.1-1.7,0-2.6,0c-1.6-0.1-2.4-1-2.4-2.5c0-1.5,1.1-1.9,2.4-1.9c2.3,0,4.6,1.6,5.5,3.9
		c0.9,2.1,0.4,4.3-1.4,5.9c-1.8,1.6-4.4,2.1-6.4,0.9c-1.4-0.9-2.3-0.9-3.7,0C466.8,374.6,465.4,374.5,462.5,373.6z"/>
	<path class="st1" d="M369.9,235.6c-0.3,6.5-0.5,5.6,5,5.7c2.8,0,5.5,0,8.3,0c1,0,2.1,0.1,2.4-1.3c0.2-0.7,0.7-0.8,1.4-0.7
		c0.6,0.2,0.7,0.7,0.7,1.2c0.5,3.3-0.6,4.6-3.9,4.6c-3.9,0-7.8,0-11.7,0c-3.1,0-4.4-1.3-4.4-4.3c0-2.6,0-5.2,0-7.8
		c0-1.6,0.5-2.3,2.3-1.5c2,0.9,4.1,0.3,6.2,0.3c0.6,0,0.8-0.5,0.8-1.1c0-0.6-0.2-1.3-0.9-1.3c-2.1,0-4.2-0.6-6.2,0.4
		c-0.6,0.3-1.2,0.6-1.8,0.1c-0.8-0.6-0.3-1.3,0-1.9c1.1-2.1,3.8-3.4,6.3-2.9c2.3,0.4,4.5,2.6,4.5,4.9c0,1.9,0.7,2.1,2.3,2
		c0.9-0.1,1.9,0,2.8,0c0.8,0,1.5-0.2,1.5-1.2c0-1-0.6-1.4-1.5-1.4c-0.7,0-1.4,0-2.2,0c-1.6,0-2.5-0.9-2.5-2.4c0-1.7,1.3-2.1,2.7-2
		c2.2,0.1,4.5,1.9,5.3,4.2c0.7,2.1,0.2,4.2-1.6,5.7c-1.9,1.7-4.5,2-6.6,0.7c-1.2-0.8-1.9-0.8-3.1,0
		C374,236.9,371.9,236.4,369.9,235.6z"/>
	<path class="st2" d="M311.3,118.8c-4.3,5.8-9.8,10.2-16.6,12.7c-0.4,0.1-0.7,0.3-1,0.6l-9.7,2c-0.3-0.5-1-0.6-2.3-0.5
		c-4.2,0.2-8.2-0.7-11.8-3c-0.3-0.2-0.7-0.3-0.8-0.7c9.6,3.4,18.6,1.3,27.4-2.5c9.1-4,15.2-10.5,17.4-21.1
		C315.1,111.3,313.9,115.2,311.3,118.8z"/>
	<path class="st1" d="M293.7,132.1c-0.6,0.4-1,1-1.4,1.6c-3.1,3.9-6.1,7.8-9.2,11.8c-0.4,0.5-0.9,1-1.6,1.4c0.8-2.6,1.9-5,2.3-7.7
		c0.2-1.1,0.4-2.1,0.4-3.2c0.1-0.9,0-1.5-0.2-1.8L293.7,132.1z"/>
	<path class="st1" d="M419.7,443c3,2.2,3.8,4.1,2.7,6.5c-0.9,1.9-2.4,2.9-4.5,2.7c-2.2-0.2-3.6-1.6-4.1-3.6c-0.5-2,0.3-3.7,2-4.9
		c0.8-0.5,2.1-0.6,0.8-2.1c-0.9-1,0.4-2.8,1.8-3c0.8-0.1,1.6,0,2.4,0c0.8,0,1.3-0.3,1.3-1.1c0-0.7-0.3-1.4-1-1.4c-1.7-0.1-3.3,0-5,0
		c-0.7,0-0.6,0.5-0.5,0.9c0.2,2.2-0.9,3.7-2.4,5.1c-0.6,0.6-1.3,1-2.1,0.7c-0.7-0.3-0.9-0.9-0.8-1.6c0.1-0.9,0.2-2,1.3-2.3
		c0.9-0.3,2.1-0.1,1.8-1.5c-0.3-1.5-1.6-1.2-2.6-1.2c-1.1,0-2.2,0-3.3,0c-0.7,0-1.3,0.2-1.4,1.1c-0.1,0.8,0.1,1.4,1.1,1.5
		c1.2,0.1,1.8,0.9,1.9,2c0.1,0.7,0.2,1.5-0.6,1.9c-0.7,0.4-1.4,0.1-2-0.4c-2.8-2-3.4-5.4-1.6-8c1.9-2.7,5.1-3.3,8.1-1.6
		c0.6,0.3,0.9,1.1,1.9,0.3c3.2-2.3,6.8-1.5,8.6,1.7c1.8,3.2,0.7,6.2-2.8,8C420.2,442.7,420,442.9,419.7,443z M418.1,448.7
		c0.7-0.1,1.4-0.1,2.1-0.2c0.5-0.1,0.6-0.7,0.4-1.1c-0.5-1.1-1.5-0.7-2.3-0.6c-0.8,0-1.9-0.5-2.5,0.6c-0.2,0.4,0,1,0.4,1.1
		C416.8,448.6,417.4,448.6,418.1,448.7z"/>
	<path class="st1" d="M463.3,228.5c3-4.5,6.8-5.2,9.8-2c1.7,1.8,2,3.9,1.1,6.2c-0.9,2.2-3.2,3.6-5.5,3.6c-1.3,0-2.3-0.6-2.4-1.9
		c-0.1-1.5,0.7-2.5,2.3-2.7c0.8-0.1,1.6,0.1,2.4,0.1c0.9,0,1.5-0.4,1.5-1.4c0-1.1-0.6-1.4-1.5-1.4c-1.4,0-2.8-0.1-4.1,0
		c-1.6,0.1-3,2-3.1,4c-0.1,2,0,4.1,0,6.1c0,1.2,0.3,1.9,1.7,1.2c0.9-0.5,1.3,0,1.6,0.8c0.6,1.6,0.2,3-1.3,3.7
		c-1.5,0.7-2.6-0.1-3.3-1.5c-0.6-1.1-0.8-2.3-0.8-3.6c0-2.8-0.1-5.7,0-8.5c0-1.4-0.5-2-1.9-1.9c-1.2,0.1-2.5,0-3.7,0
		c-1.4,0-1.8,0.7-1.4,2.1c0.9-0.6,1.6-1.4,2.7-1.3c1.2,0,2.7-0.3,3.3,1.1c0.6,1.3,0.7,2.8-0.2,4c-0.8,1.2-2.2,1.3-3.5,1
		c-2.5-0.5-4.4-2.8-4.6-5.4c-0.2-2.2,1.4-4.6,3.8-5.5c2.3-0.9,4.8-0.2,6.4,1.8C462.7,227.4,462.9,227.9,463.3,228.5z"/>
	<path class="st1" d="M417.9,293.7c-3.4-2.3-4.1-4.2-2.6-6.6c1-1.6,2.5-2.2,4.3-2.1c1.6,0.1,2.9,0.9,3.7,2.3
		c0.2,0.4,0.6,0.9,0.2,1.4c-0.4,0.6-0.9,0.4-1.5,0.2c-1.3-0.5-2.7-0.2-4.1-0.2c-0.5,0-1.2,0-1.2,0.7c0,0.7,0.6,0.7,1.1,0.7
		c0.3,0,0.6,0,0.9,0c1.4-0.1,2.6,0.2,2.7,1.8c0.1,1.5-1.2,1.8-2.6,1.9c0.7,0.3,1.3,0.4,1.8,0.7c3.2,1.4,4.5,4.5,3,7.5
		c-1.6,3.2-5.4,4.5-8.2,2.6c-1.1-0.7-1.7-0.6-2.7,0c-2.7,1.7-5.9,1-7.5-1.4c-1.8-2.7-1.5-6,0.9-8c0.6-0.5,1.3-1.3,2.3-0.8
		c0.6,0.3,0.8,1,0.8,1.7c-0.1,1.1-0.3,2.1-1.5,2.4c-0.9,0.2-1.8,0.3-1.6,1.5c0.2,1.2,1.2,1.1,2,1.1c1.2,0,2.5,0,3.7,0
		c0.8,0,1.4-0.3,1.5-1.2c0.1-0.9-0.4-1.3-1.2-1.4c-0.9-0.1-1.4-0.7-1.7-1.5c-0.2-0.9-0.4-1.9,0.5-2.6c0.9-0.6,1.7,0.1,2.3,0.6
		c1.3,1.3,2.3,2.8,2.2,4.8c-0.1,1,0.2,1.3,1.2,1.2c1.3-0.1,2.6,0,3.9,0c0.9,0,1.6-0.5,1.5-1.4c0-1-0.8-1.1-1.6-1.1
		c-0.4,0-0.9,0-1.3,0.1c-1.6,0.2-2.9-0.3-3.4-2C415.2,294.9,416.5,294.3,417.9,293.7z"/>
	<path class="st1" d="M200.6,226.9c1,1.5,1.5,3.1,1.2,4.9c-0.1,0.6,0.5,1.7-0.5,1.8c-1,0.1-2.2,0.5-3-0.9c-1.7-3.1-3.6-6.1-5.4-9.1
		c-0.2,0-0.4-0.1-0.5,0c-0.2,0.2,0,0.5,0.1,0.7c0.5,1.6,0.2,3.3,0.2,5c0.1,1.2-0.2,2.4,1,3.4c0.8,0.6,0.2,1-0.5,1
		c-3.2,0-6.4,0-9.6,0c-0.8,0-1.1-0.2-0.7-1.2c0.8-1.8,0.3-2.5-1.7-2.7c-0.4,0-1.2,0.3-1.1-0.5c0-0.6,0.6-0.8,1.2-0.7
		c1.3,0.1,1.4-0.4,1.1-1.5c-0.5-1.8-1-3.6-1.3-5.5c-0.2-0.9-1.1-2.2,0.6-2.7c2.4-0.6,3.7,0,4.1,1.6c0.8,3.2,1.5,6.3,2.3,9.5
		c0.3,1.2,0.4,3,1.8,2.9c1.5-0.1,1.7-1.8,1.7-3.3c-0.1-1.7-0.4-3.6,0.1-5.2c0.6-2,0.6-3.3-1.3-4.5c-0.7-0.4,0-0.9,0.6-1.1
		c3.3-0.7,5.2,0.1,6.8,3c0.7,1.3,1.5,2.6,2.5,3.9c0.2-1.9,1.1-3.8-0.6-5.5c-0.3-0.3-0.6-0.5-0.5-0.9c0.2-0.5,0.7-0.5,1.1-0.5
		c0.8,0,1.6,0,2.4,0c0.5,0,1,0.5,0.6,0.8c-2.2,1.7-1.1,4.1-1.4,6.3c0,0.2,0,0.5,0,0.6c-0.3,0.8-0.4-0.1-0.7-0.1
		c-0.2-0.3-0.2-1-0.7-0.7C199.9,226.2,200.5,226.6,200.6,226.9z"/>
	<path class="st1" d="M405.5,224.8c3.7,2.1,4.9,4.3,4,7.4c-0.8,2.7-3.1,4.3-5.9,4.2c-2.6-0.1-4.6-1.8-4.8-4.7
		c-0.2-2.1-1.2-2.5-2.9-2.3c-0.9,0.1-1.9,0-2.8,0c-0.8,0-1.4,0.5-1.4,1.3c0,0.8,0.6,1.1,1.3,1.1c0.9,0,1.7,0,2.6,0
		c1.5,0.1,2.3,1.1,2.3,2.4c0,1.6-1.2,2-2.6,2c-2.9,0-5.7-2.8-5.8-5.7c-0.1-2.8,2.3-5.4,5.2-5.7c3.2-0.4,5.7,1.5,5.9,4.9
		c0.1,1.9,0.9,2.1,2.4,2c1.1-0.1,2.2,0,3.3,0c0.8,0,1.4-0.5,1.3-1.4c-0.1-0.8-0.7-1-1.4-1c-0.7,0-1.5,0-2.2,0
		c-1.2,0.1-1.9-0.5-2.4-1.5c-0.4-1-0.3-2,0.7-2.7c0.4-0.3,1-0.4,0.4-1.1c-1.4-1.6-0.9-2.9,0.8-3.9c1.2-0.7,2.3-0.3,3,0.8
		C407.6,222.4,407,223.7,405.5,224.8z"/>
	<path class="st1" d="M436.7,370.5c-3.2,4.5-7.2,4.9-10.3,1.2c-0.8-0.9-1.5-1.9,0.2-2.7c1-0.4-0.1-0.6-0.2-0.7
		c-1.5-1.6-0.7-2.9,0.5-4.1c1.8-1.7,4.8-1.9,7.1-0.6c0.9,0.5,1.5,0.8,2.6,0.1c1.9-1.4,4.5-1.1,6.4,0.4c1.8,1.4,2.6,3.9,2,6
		c-0.7,2.2-3.1,4.1-5.3,4.2C437.6,374.3,436.9,373.6,436.7,370.5z M436.9,369.7c1.6-2.5,3.1-2.7,5-0.6c0.2,0.2,0.3,0.8,0.7,0.5
		c0.3-0.2,0.4-0.6,0.5-0.9c0.1-0.9-0.4-1.4-1.2-1.4c-1.4,0-2.9-0.1-4.3,0C435.9,367.4,435.8,368.3,436.9,369.7z M431.8,369.9
		c-1.2-0.8-1-1.7-0.9-2.5c-0.6,0-1.5-0.3-1.9,0c-0.6,0.4-1.2,1.3-1.3,2c-0.1,0.5,0.9,0.5,1.5,0.5
		C429.9,369.9,430.6,369.9,431.8,369.9z"/>
	<path class="st1" d="M397.5,370.5c-3.2,4.6-7.6,5-10.5,1c-0.4-0.5-1.1-1.4-0.5-1.7c2-1,0.3-1.8,0.1-2.7c-0.4-1.3,0.4-2.2,1.2-3
		c1.9-1.7,4.8-1.8,7.3-0.4c0.8,0.5,1.3,0.7,2.2,0c2-1.5,4.4-1.3,6.5,0.2c1.9,1.4,2.8,3.8,2.2,5.9c-0.6,2.1-2.8,4-5,4.3
		C398.6,374.5,397.7,373.6,397.5,370.5z M397.8,369.7c1.6-2.6,3.2-2.7,5-0.7c0.2,0.3,0.3,0.8,0.7,0.5c0.3-0.1,0.5-0.6,0.5-0.9
		c0.2-1-0.5-1.4-1.4-1.4c-1.4,0-2.7-0.1-4.1,0C396.8,367.4,396.6,368.2,397.8,369.7z M392.8,369.9c-1.6-0.8-0.7-2-1.3-2.5
		c-0.4-0.3-1.8-0.4-1.9,0.2c-0.2,0.8-1.2,1.2-0.9,1.9c0.3,0.7,1.2,0.4,1.8,0.4C391,369.9,391.6,369.9,392.8,369.9z"/>
	<path class="st1" d="M513.8,370.8c-1.4,1.3-2.4,3-4.5,3.4c-1.2,0.2-2.5,0.4-3.4-0.8c-0.6-0.7-0.5-1.5-0.1-2.2
		c0.6-1.3,1.7-1.6,3.1-1.4c0.6,0.1,1.2,0.1,1.7,0c0.8-0.1,1.1-0.6,1.1-1.3c0-0.8-0.3-1.3-1.1-1.4c-1.7-0.1-3.6-0.4-5.2,0.1
		c-1.8,0.6-2.8,2.4-3,4.3c-0.2,3,0,6.1-0.1,9.1c0,2.4-0.8,2.9-2.9,1.9c-0.9-0.4-1.8-0.9-2.7-1.3c-1.9-0.9-2.8-3.3-2-5.1
		c0.2-0.4,0.5-0.7,1-0.7c0.6,0,0.9,0.3,1.1,0.9c0.7,2.1,0.7,2.1,3.5,2.6c0-4.5,0-9,0-13.5c0-0.9-0.7-2.4,0.9-2.4
		c1.8-0.1,1,1.5,1.2,2.5c0,0.2,0,0.4,0.1,1c1.4-2.1,3-3.8,5.5-3.8c2.5,0,4.3,1.4,5.8,3.9c0.1-2.2,0.7-3.6,2.6-3.8
		c1.1-0.1,2,0.6,2.4,1.8c0.4,1.2-0.1,2.2-1,2.8c-1.5,1.1-2.7,0.3-4-1.2C513.7,367.9,513.7,369.3,513.8,370.8L513.8,370.8z"/>
	<path class="st1" d="M436.7,230.4c0.1,4.3-4.7,7.2-8.5,5.1c-0.9-0.5-1.5-0.6-2.5,0c-2.6,1.5-5.3,1-7.2-1.2
		c-0.2-0.3-0.5-0.6-0.6-0.9c-0.8-1.5-0.2-5.4,0.8-6.6c1.9-2,4.3-2.6,6.7-1.3c1.2,0.6,1.9,0.5,3.1,0
		C432.2,223.7,436.6,226.5,436.7,230.4z M431.2,231.8c0.6,0,1.2,0,1.7,0c0.9,0,1.6-0.2,1.6-1.3c0-0.9-0.7-1.2-1.5-1.2
		c-1.1,0-2.2,0.1-3.2,0c-1.1-0.1-1,0.6-1.1,1.4c-0.1,1,0.4,1.2,1.2,1.2C430.3,231.8,430.8,231.8,431.2,231.8z M423.8,229.4
		c0.5,0.5,0.8,0.9,1.2,1.4c0.3,0.3,0.3,1.1,1,0.9c0.5-0.1,0.8-0.6,0.7-1.2c-0.1-0.7-0.5-1-1.1-1.1
		C425,229.3,424.5,229.4,423.8,229.4z"/>
	<path class="st1" d="M429.3,435.9c-1.2-2.5-0.9-3.2,1.6-4.6c-0.7-0.6-1.3-1.1-1.9-1.6c-1.3-1.2-1.7-2.6-1-4.3
		c0.9-2,2.5-2.8,4.5-2.8c1.8,0,3.2,0.9,3.9,2.6c0.2,0.4,0.3,0.8,0,1.2c-0.4,0.5-0.8,0.4-1.4,0.2c-1.4-0.6-2.9-0.2-4.3-0.3
		c-0.5,0-1.2,0.1-1.1,0.7c0,0.6,0.7,0.6,1.2,0.6c0.3,0,0.6,0,0.9,0c1.3-0.1,2.4,0.2,2.6,1.7c0.2,1.4-0.9,1.8-2.1,2.1
		c1.2,0.7,2.4,1.4,2.4,3c0,0.4,0.2,0.6,0.5,0.8c2.6,2.2,3,4.4,0.2,6c-3.5,2.1-2.4,4.6-1.7,7.4c0.2,0.8,1.1,1.6,0.2,2.4
		c-0.6,0.5-1.5,0.2-2.3-0.1c-1.2-0.4-0.8-1.4-0.9-2.2c0-0.8-0.1-1.6,0-2.4c0.2-2.1,0-3.9-2.5-4.6c-1.2-0.3-1.8-1.4-2.2-2.6
		C425.3,437.1,426.2,436.1,429.3,435.9z M431.8,436.5c0.3,0.5,0.4,0.7,0.5,1c0.3,1,1,1.1,1.8,0.9c0.3-0.1,0.8-0.1,0.7-0.6
		c-0.2-0.7-1-0.7-1.5-1C432.9,436.8,432.5,436.7,431.8,436.5z"/>
	<path class="st1" d="M374.8,294.1c3,0,5.1,1.9,5.4,5.1c0.1,1.6,0.7,2,2.1,1.9c1-0.1,2,0,3,0c1,0,1.8-0.2,1.8-1.3
		c0-1.1-0.9-1.1-1.7-1.1c-0.7,0-1.5,0-2.2,0c-1.6-0.1-2.3-1.2-2.2-2.7c0-1.5,1.1-1.9,2.4-1.9c2.3,0,4.7,1.6,5.5,3.8
		c0.8,2.2,0,5-1.8,6.5c-1.9,1.5-4.6,1.6-6.7,0.4c-1.6-1-2.2-2.6-2.3-4.2c-0.1-1.6-0.8-2-2.2-1.9c-1.2,0.1-2.3,0-3.5,0
		c-0.8,0-1.4,0.5-1.4,1.3c0,0.8,0.6,1.1,1.3,1.1c0.9,0,1.7-0.1,2.6,0c1.5,0.2,2.4,1.1,2.3,2.6c-0.1,1.5-1.3,1.8-2.5,1.8
		c-3,0-5.9-2.9-5.9-5.8C369,296.6,371.6,294.1,374.8,294.1z"/>
	<path class="st1" d="M416.8,363c2.1,1.9,3.5,4,2.7,7c-0.6,2.2-2,3.4-4.4,4.2c1.8,1.3,3.6,2.6,3.4,5c-0.1,1.4-0.7,2.7-1.8,3.6
		c-2,1.6-4.9,1.1-6.5-1.1c-1.8-2.5-0.9-5.3,2.2-7.2c-0.2-0.6-0.8-0.6-1.2-0.8c-3.7-2.2-4.3-6.7-1.1-9.7c0.6-0.6,1.3-1.2,2.3-0.9
		c0.8,0.2,1,0.9,0.9,1.5c-0.1,1-0.2,2.1-1.3,2.5c-0.8,0.3-2.1,0.2-1.8,1.7c0.3,1.4,1.5,1.1,2.5,1.1c1.1,0,2.1,0,3.7,0
		c-1.8-1.1-2.2-2.5-2.4-4C413.9,363.3,414.3,362.8,416.8,363L416.8,363z M413.9,379.8c0.7-0.3,2.3,0.7,2.3-1.1
		c-0.1-1.5-1.6-0.7-2.5-0.8c-0.5-0.1-1,0-1.5,0c-0.6,0.1-0.9,0.5-0.8,1.1c0,0.5,0.3,0.8,0.8,0.8
		C412.7,379.9,413.2,379.8,413.9,379.8z"/>
	<path class="st1" d="M457.3,436c-0.8,0-1.6,0-2.4,0c-0.7,0-1.1,0.4-1.1,1.1c0,0.7-0.1,1.3,0.9,1.5c0.4,0.1,0.7,0.1,1,0.3
		c0.9,0.5,1.1,1.4,1.1,2.4c0,0.6-0.2,1.1-0.9,1.4c-0.9,0.3-1.5-0.2-2.1-0.8c-2.6-2.3-3-5.4-1.1-7.9c1.9-2.6,5.1-3.2,7.9-1.4
		c0.9,0.6,1.4,0.7,2.3,0c2.1-1.5,4.4-1.4,6.5,0.1c1.9,1.3,2.8,3.2,2.5,5.4c-0.3,2.5-1.9,4-4.2,4.8c-1.1,0.3-2.2,0.3-3-0.6
		c-0.6-0.6-0.6-1.4-0.2-2.2c0.5-1.2,1.5-1.5,2.6-1.4c0.4,0,0.9,0,1.3,0c0.8,0,1.5-0.2,1.5-1.1c0-1-0.5-1.4-1.5-1.4c-0.5,0-1,0-1.5,0
		c-1.8,0-4.1-0.8-3.7,2.7c0.1,1.3-1.2,2.4-2.2,3.3c-0.6,0.5-1.3,1-2.2,0.6c-0.7-0.3-0.9-0.9-0.8-1.6c0.1-0.8,0.2-1.8,1.1-2.2
		c0.8-0.4,2.3,0,2-1.6c-0.3-1.6-1.8-1.1-2.8-1.2C457.9,436,457.6,436,457.3,436C457.3,436,457.3,436,457.3,436z"/>
	<path class="st1" d="M441.1,438.1c0.9-0.7,1.6-1.4,2.7-1.4c1.2,0,2.6-0.2,3.2,1.2c0.5,1.2,0.6,2.6-0.1,3.8
		c-0.8,1.2-2.1,1.4-3.5,1.2c-2.7-0.5-4.9-3.2-4.8-5.9c0.1-2.6,2.5-5.1,5.1-5.4c2.8-0.3,5.3,1.3,6.1,4.1c0.8,3,0.2,6.1,0.4,9.1
		c0.1,1.3-0.5,3.4,2.1,2c0.4-0.2,0.7,0.1,0.9,0.4c0.9,1.2,0.5,3.2-0.8,4.1c-1.5,0.9-2.7,0.3-3.5-1c-0.7-1.1-0.9-2.4-0.9-3.7
		c0-2.9,0-5.8,0-8.7c0-1.3-0.4-1.9-1.7-1.8c-1.3,0.1-2.6,0-3.9,0C441,436,440.8,436.8,441.1,438.1z"/>
	<path class="st1" d="M328,162.7c0.9-0.7,1.7-1.4,2.8-1.4c1.2,0,2.5-0.2,3.1,1c0.6,1.3,0.7,2.7-0.1,4c-0.8,1.2-2.1,1.4-3.5,1.2
		c-2.7-0.5-4.9-3.3-4.8-5.9c0.1-2.5,2.4-4.9,4.9-5.4c2.8-0.5,5.5,1.2,6.3,4.1c0.8,3,0.2,6.1,0.4,9.1c0.1,1.4-0.5,3.4,2.1,2
		c0.4-0.2,0.6,0.1,0.9,0.4c0.9,1.2,0.5,3.2-0.8,4.1c-1.5,0.9-2.6,0.3-3.5-1c-0.7-1.1-0.9-2.4-0.9-3.7c0-2.9,0-5.8,0-8.7
		c0-1.3-0.4-1.9-1.8-1.8c-1.3,0.1-2.6,0-3.9,0C328.1,160.6,327.6,161.3,328,162.7z"/>
	<path class="st1" d="M210.3,369.2c0.5,1.6,0.2,3.3,0.2,5c0.1,1.2-0.2,2.4,1,3.4c0.8,0.6,0.3,1-0.5,1.1c-0.6,0.1-1.2,0-1.7,0
		c-0.5,0-1.1,0.2-1.4-0.4c-0.3-0.7,0.4-0.8,0.7-1.1c0.6-0.7,0.5-1.6,0.6-2.5c0.4-2.3-0.8-4.7,0.7-7c0.4-0.6-0.6-2-1.6-2.6
		c-0.3-0.2-0.6-0.4-0.5-0.8c0.1-0.4,0.5-0.5,0.9-0.5c1.4,0,2.9,0,4.3,0c0.9,0,1.1,0.6,1.4,1.2c1.1,1.9,2.2,3.9,3.6,5.7
		c0.2-1.9,1.1-3.8-0.6-5.5c-0.8-0.8-0.7-1.3,0.4-1.4c0.9-0.1,1.7,0,2.6,0c0.5,0,1,0.5,0.5,0.9c-2.3,1.7-1,4.1-1.4,6.2
		c0,0.2,0,0.5,0,0.6c-0.3,0.8-0.4-0.1-0.7-0.1c-0.2-0.3-0.2-1-0.7-0.7c-0.5,0.3,0.1,0.7,0.2,1c1,1.5,1.5,3.1,1.2,4.9
		c-0.1,0.6,0.5,1.7-0.5,1.8c-1,0.1-2.2,0.5-3-0.9c-1.7-3.1-3.6-6.1-5.4-9.1c-0.2,0-0.4-0.1-0.5,0C210,368.8,210.1,369,210.3,369.2z"
		/>
	<path class="st1" d="M295.2,369.2c0.5,1.8,0.1,3.7,0.2,5.6c0,0.6,0,1.3,0.3,1.9c0.2,0.6,1.7,1,0.8,1.6c-0.9,0.7-2.2,0.4-3.4,0.1
		c-0.6-0.1-0.5-0.7-0.1-1c1.2-0.8,0.9-2,1.1-3.1c0.3-2.2-0.8-4.6,0.7-6.8c0.4-0.6-0.6-1.8-1.5-2.4c-0.4-0.3-0.8-0.4-0.6-1
		c0.2-0.5,0.7-0.5,1.1-0.5c1.3,0,2.6,0.1,3.9,0c0.9-0.1,1.2,0.6,1.6,1.2c1.1,1.9,2.2,3.9,3.6,5.7c0.1-1.9,1.1-3.8-0.6-5.5
		c-0.8-0.8-0.6-1.2,0.5-1.3c0.5-0.1,1,0,1.5,0c0.6,0,1.3-0.2,1.6,0.4c0.4,0.8-0.4,0.9-0.8,1.3c-0.7,0.8-0.6,1.8-0.6,2.7
		c0,1.2,0.1,2.3-0.1,3.5c-0.1,0.8-0.4-0.1-0.6-0.1c-0.1-0.2-0.3-0.5-0.6-0.3c-0.3,0.2,0,0.5,0.1,0.7c1,1.5,1.5,3.1,1.2,4.9
		c-0.1,0.6,0.5,1.7-0.5,1.8c-1,0.1-2.2,0.5-3-0.9c-1.7-3.1-3.6-6.1-5.4-9.1c-0.2,0-0.4-0.1-0.5,0C294.8,368.8,295,369,295.2,369.2z"
		/>
	<path class="st1" d="M180.3,441.9c0.5,1.8,0.1,3.7,0.2,5.6c0,0.6,0,1.3,0.3,1.9c0.2,0.6,1.7,1,0.8,1.6c-0.9,0.7-2.2,0.4-3.4,0.1
		c-0.6-0.1-0.5-0.7-0.1-1c1.2-0.8,0.9-2,1.1-3.1c0.3-2.2-0.8-4.6,0.7-6.8c0.4-0.6-0.6-1.8-1.5-2.4c-0.4-0.3-0.8-0.4-0.6-1
		c0.2-0.5,0.7-0.5,1.1-0.5c1.3,0,2.6,0.1,3.9,0c0.9-0.1,1.2,0.6,1.6,1.2c1.1,1.9,2.2,3.9,3.6,5.7c0.1-1.9,1.1-3.8-0.6-5.5
		c-0.8-0.8-0.6-1.2,0.5-1.3c0.5-0.1,1,0,1.5,0c0.6,0,1.3-0.2,1.6,0.4c0.4,0.8-0.4,0.9-0.8,1.3c-0.7,0.8-0.6,1.8-0.6,2.7
		c0,1.2,0.1,2.3-0.1,3.5c-0.1,0.8-0.4-0.1-0.6-0.1c-0.1-0.2-0.3-0.5-0.6-0.3c-0.3,0.2,0,0.5,0.1,0.7c1,1.5,1.5,3.1,1.2,4.9
		c-0.1,0.6,0.5,1.7-0.5,1.8c-1,0.1-2.2,0.5-3-0.9c-1.7-3.1-3.6-6.1-5.4-9.1c-0.2,0-0.4-0.1-0.5,0
		C179.9,441.4,180.1,441.6,180.3,441.9z"/>
	<path class="st1" d="M453,362.8c2.9,0,5.5,2.2,5.9,5c0.4,2.6-1.2,5.2-4.1,6.2c-2.2,0.8-6.1-0.4-6.7-2.5c-0.6-1.8-0.7-4,0-5.7
		C448.8,363.8,451,363,453,362.8z M454.8,369.7c1.5,0.2,2-0.2,2-1.4c0-0.6-0.4-1.1-0.9-1C454.3,367.7,456.3,369.2,454.8,369.7z"/>
	<path class="st1" d="M350,161.8c0,2.6-1.6,4.7-4.3,5.5c-2.3,0.7-5-0.3-6.3-2.3c-0.8-1.3-0.8-5.4,0.1-6.5c1.6-2,4.1-2.9,6.3-2.2
		C348.4,157.3,350,159.3,350,161.8z M345.3,160.7c0.4,0.6,0.7,1.2,1.1,1.6c1.4,1.4,1.7,0.1,1.4-0.8
		C347.5,160.1,346.3,160.7,345.3,160.7z"/>
	<path class="st1" d="M497.5,367.9c-0.2-0.8-0.9-0.8-1.5-1c-1.2-0.4-1.3-1.4-1.3-2.4c0-0.7,0.1-1.3,0.8-1.6c1-0.3,1.6,0.3,2.3,0.9
		c2.1,2,2.7,4.7,1.6,7.1c-1,2.2-3.7,3.6-6.1,3.3c-2.4-0.3-4.3-2.2-4.9-4.8c-0.5-2.2,1.3-5.6,3.2-6.3c0.8-0.3,1.5-0.2,1.7,0.7
		c0.3,1.2,0.3,2.5-1,3.2c-0.7,0.4-1.9,0.1-1.8,1.5c0,0.2,0,0.3,0,0.5c0.1-0.1,0.2-0.2,0.2-0.3c2-1.4,4.1-1.2,6.3-0.3
		c0.1,0.2,0.3,0.4,0.4,0.6C497.7,368.6,497.7,368.3,497.5,367.9z"/>
	<path class="st1" d="M237.1,364.8c-2.1,0.3-3.4,1-4,2.7c-0.1,0.4-0.4,0.9-0.9,0.7c-0.5-0.1-0.3-0.6-0.3-0.9
		c-0.4-3.4-0.2-3.8,3.1-3.4c1.9,0.3,3.6-0.2,5.3-0.1c2.5,0.1,2.6,0.1,1.6,2.4c-1.7,3.8-3.4,7.5-5.1,11.3c-0.4,1-4.5,1.8-5.2,1
		c-0.5-0.6,0-1.2,0.3-1.8C233.5,372.8,235.2,369,237.1,364.8z"/>
	<path class="st1" d="M444.8,231.9c1.3,0,2.6,0.4,3.7-0.6c0.5-0.4,1.2-0.3,1.6,0.2c0.4,0.5,0.2,1.1-0.1,1.6
		c-0.8,1.7-3.3,3.4-5.3,3.2c-2.4-0.2-4.4-1.3-5.4-3.7c-0.9-2.1-0.2-4,1.2-5.6c2.6-2.9,7.1-2.6,9.2,0.5c0.4,0.6,1,1.4,0.3,2.2
		c-0.6,0.7-1.3,0.3-1.9,0c-1.9-0.8-4-0.3-6-0.3c-0.7,0-1,0.5-1,1.2c0,0.8,0.3,1.3,1.1,1.4C443,231.9,443.9,231.9,444.8,231.9z"/>
	<path class="st1" d="M358.1,163.2c1,0,2.3,0.3,3.4-0.7c0.4-0.3,1-0.2,1.4,0.1c0.5,0.5,0.4,1,0.1,1.6c-0.8,2-3.9,3.7-6.1,3.3
		c-2.8-0.5-5-2.9-5.1-5.4c-0.1-2.6,2.2-5.3,5-5.8c2.3-0.5,5.3,1,6.2,3.1c0.2,0.6,0.4,1.1-0.1,1.6c-0.5,0.5-1,0.5-1.6,0.1
		c-1.9-1.1-4-0.4-6-0.5c-0.8-0.1-1.4,0.3-1.4,1.3c0,0.9,0.5,1.3,1.4,1.3C356.2,163.2,357,163.2,358.1,163.2z"/>
	<path class="st1" d="M396.9,301.1c0.9,0,2.3,0.3,3.4-0.7c0.4-0.3,1-0.2,1.4,0.1c0.5,0.5,0.3,1,0.1,1.6c-0.8,2-3.9,3.7-6.1,3.3
		c-2.8-0.5-5-2.9-5.1-5.4c-0.1-2.6,2.2-5.3,5-5.8c2.3-0.5,5.3,1.1,6.2,3.1c0.2,0.6,0.4,1.1-0.1,1.6c-0.5,0.5-1,0.5-1.6,0.1
		c-1.9-1.1-4-0.4-6-0.5c-0.8-0.1-1.4,0.3-1.4,1.3c0,0.9,0.5,1.3,1.4,1.3C395,301.1,395.8,301.1,396.9,301.1z"/>
	<path class="st1" d="M314.2,378.9c-0.3,0.1-0.6,0.1-0.7-0.3c-0.1-0.4,0.1-0.7,0.4-1.1c1.7-1.6,1.6-2.4-0.5-3.5
		c-1.3-0.7-2.7-1.1-3.8-2.1c-1.6-1.4-2.1-3.1-1.5-5.1c0.6-2.1,2-3.1,4-3.5c0.3-0.1,0.8-0.2,1,0.2c0.1,0.3-0.1,0.7-0.3,1
		c-1.5,2.1-1.4,2.6,0.9,3.7c1.2,0.6,2.6,1,3.6,2c1.6,1.5,2,3.3,1.2,5.3C317.7,377.6,316.2,378.6,314.2,378.9z"/>
	<path class="st1" d="M203.4,378.6c-0.6,0-1.2,0-1.7,0c-1-0.1-2.2,0.3-1.2-1.6c0.6-1,0.3-2.5-1.6-2.4c-0.5,0-1.3,0.4-1.3-0.5
		c0-0.8,0.7-0.8,1.3-0.7c1,0.1,1.2-0.3,0.9-1.3c-0.5-2-1-3.9-1.4-5.9c-0.2-0.9-0.9-2.1,0.6-2.5c2.3-0.6,3.7,0,4.1,1.6
		c0.8,3.1,1.5,6.2,2.2,9.3c0.1,0.6,0.2,1.1,0.4,1.7c0.8,2.2,0.8,2.2-1.7,2.2C203.9,378.6,203.7,378.6,203.4,378.6z"/>
	<path class="st1" d="M125.9,233.7c-0.5,0-1,0-1.5,0c-1-0.1-2.5,0.5-1.3-1.6c0.6-1,0.1-2.5-1.7-2.3c-0.4,0-1.2,0.3-1.3-0.4
		c-0.1-0.8,0.6-0.9,1.2-0.9c1.4,0.2,1.3-0.6,1-1.6c-0.5-2-1-4.1-1.4-6.1c-0.3-1.4,0-2,1.7-2.1c2.1-0.1,3.1,0.4,3.4,2.6
		c0.5,3.3,1.5,6.5,2.3,9.7c0.7,2.6,0.8,2.6-2.2,2.6C126.1,233.7,126,233.7,125.9,233.7z"/>
	<path class="st1" d="M252.5,378.6c-0.6,0-1.2,0-1.7,0c-0.9,0-2.1,0.2-1.1-1.5c0.8-1.3-0.1-2.3-1.7-2.4c-0.4,0-1.2,0.3-1.2-0.4
		c-0.1-0.8,0.6-0.9,1.2-0.8c1.2,0.1,1.3-0.4,1-1.4c-0.5-1.9-1-3.8-1.3-5.7c-0.2-0.9-1-2.1,0.5-2.6c2.1-0.7,3.8,0.1,4.2,1.7
		c0.7,3.1,1.5,6.2,2.2,9.3c0.1,0.4,0.2,0.7,0.3,1C255.6,378.6,255.6,378.6,252.5,378.6z"/>
	<path class="st1" d="M155.6,233.7c-0.5,0-1,0-1.5,0c-1.1,0-2.5,0.4-1.3-1.8c0.6-1.1-0.1-2.4-1.9-2.2c-0.4,0-1.1,0.4-1.2-0.5
		c0-0.6,0.6-0.8,1.1-0.7c1.6,0.2,1.4-0.6,1.1-1.7c-0.5-1.9-1-3.8-1.3-5.7c-0.1-0.8-0.9-2.2,0.6-2.2c1.4,0,3.5-1.3,4.1,1.3
		c0.8,3.2,1.5,6.5,2.3,9.7c0.1,0.6,0.1,1.2,0.5,1.7c2.1,2.7-0.2,2-1.5,2.1C156.2,233.7,155.9,233.7,155.6,233.7z"/>
	<path class="st1" d="M105.9,161.1c-0.5,0-1,0-1.5,0c-1-0.1-2.4,0.4-1.2-1.7c0.6-1,0.1-2.4-1.8-2.3c-0.4,0-1.2,0.3-1.2-0.4
		c-0.1-0.8,0.6-0.9,1.2-0.8c1.5,0.1,1.2-0.6,1-1.6c-0.5-2.1-1-4.2-1.5-6.3c-0.3-1.2,0.1-1.7,1.5-1.8c2.3-0.2,3.3,0.5,3.7,2.9
		c0.5,3.2,1.4,6.4,2.3,9.5c0.7,2.6,0.8,2.6-2.2,2.6C106,161.1,106,161.1,105.9,161.1z"/>
	<path class="st1" d="M291.5,111.5c-2.5,0-4.6-2.2-4.5-4.8c0.1-2.7,2.3-5.1,4.9-5.2c2.4-0.1,4.8,2.4,4.9,4.9
		C296.8,109.2,294.3,111.6,291.5,111.5z"/>
	<path class="st1" d="M144.8,297.2c1.1,2.5-0.4,5.5,1.3,8c0.4,0.6-0.4,0.8-0.9,0.8c-1.6,0-3.2,0-4.8,0c-0.7,0-1.4-0.2-0.7-1.1
		c1.2-1.7,0.9-3.6,0.3-5.3c-0.9-2.4-1.8-4.9-3.2-7.1c-0.7-1.1-0.1-1.2,0.8-1.3c1.5,0,3,0,4.6,0c0.6,0,1.3,0,1,0.9
		C142.3,294.2,143.7,295.7,144.8,297.2L144.8,297.2z"/>
	<path class="st1" d="M199.8,305.6c2.4-1.8,2.1-4.9,1.3-5.8c-1.3-1.5-0.5-1.6,0-2.8c0.6-1.5,1-3.8-1.4-5.6c2.6-0.5,4.8-0.3,7-0.2
		c0.4,0,0.6,0.4,0.4,0.8c-1.8,3.8-0.3,7.9-0.8,11.9c-0.1,0.5,0.4,0.7,0.7,1c0.4,0.4,0.3,1-0.2,1
		C204.5,305.9,202.3,306.2,199.8,305.6z"/>
	<path class="st1" d="M200.2,305.5c-2.7,0.7-4.9,0.4-7.1,0.3c-0.4,0-0.6-0.4-0.4-0.8c1.8-3.8,1.2-8.1,0.5-11.8c-0.6-3.3,1-2,2.2-2.2
		c0.6-0.1,1.2,0,1.7,0c2.1,0,2,0,1.4,1.8c-0.2,0.4-0.1,1-0.1,1.5c0,2.7,0.1,5.4,0,8C198.4,303.6,198.5,304.6,200.2,305.5z"/>
	<path class="st1" d="M163.6,233.7c-0.8,0-1.6,0-2.4,0c-0.8-0.1-1.2-0.5-0.5-1.1c0.8-0.6,0.6-1.4,0.6-2.2c0-2.8,0-5.5,0-8.3
		c0-0.4,0.2-1,0-1.3c-1.9-2.7,0.4-1.9,1.7-2c0.7,0,1.5,0,2.2,0c1.1,0.1,3.2-0.5,1.2,1.8c-0.2,0.2-0.1,0.7-0.1,1.1
		c0.5,3.7-1.1,7.6,0.9,11.2c0.3,0.6-0.2,0.8-0.7,0.8C165.5,233.7,164.5,233.7,163.6,233.7z"/>
	<path class="st1" d="M273.5,378.6c-0.7,0-1.2,0-1.7,0c-1-0.1-2.9,0.4-1.1-1.6c0.3-0.3,0.2-1,0.2-1.5c0-2.9,0-5.8,0-8.7
		c0-0.3,0.1-0.6,0-0.9c-2.1-3.3,1-1.9,2.1-2.2c0.6-0.1,1.3-0.1,1.9,0c1,0.1,2.9-0.4,1.1,1.6c-0.2,0.3-0.1,0.8-0.1,1.3
		c0,3,0,6.1,0,9.1c0,0.1-0.1,0.3,0,0.4C277.8,379.9,274.5,378.2,273.5,378.6z"/>
	<path class="st1" d="M272.6,444.8c0.3,1.2-1.1,3.7,0.7,5.7c0.3,0.4-0.1,0.7-0.5,0.7c-0.5,0.1-1,0-1.5,0c-1.4,0-3,0.4-4.1-0.2
		c-1.3-0.7,0.6-1.9,0.4-3.2c-0.3-2.7-0.1-5.5-0.1-8.2c0-0.4,0.1-0.8,0-1.1c-1.9-3.3,0.9-2,2.1-2.2c0.6-0.1,1.3-0.1,2,0
		c1,0.1,2.6-0.7,1.2,1.7C271.9,439.6,272.6,441.9,272.6,444.8z"/>
	<path class="st1" d="M226.2,378.6c-0.7,0-1.3,0-2,0c-1.2,0-1.9-0.3-0.6-1.4c0.5-0.5,0.3-1.1,0.3-1.6c0-2.9,0-5.8,0-8.7
		c0-0.4,0.1-0.8,0-1.1c-2.1-3.1,0.8-1.8,1.8-2c0.6-0.1,1.3-0.1,1.9,0c1,0.1,3-0.8,1.4,1.8c-0.8,1.3-0.3,3.6-0.2,5.3
		c0.2,2.3-0.9,4.7,0.8,6.9c0.4,0.5-0.2,0.8-0.6,0.8C228,378.6,227.1,378.6,226.2,378.6C226.2,378.6,226.2,378.6,226.2,378.6z"/>
	<path class="st1" d="M125.9,146.2c0.5,0,1,0,1.5,0c1,0.1,2.9-0.4,1.1,1.6c-0.3,0.3-0.1,1.1-0.1,1.7c0,3.4,0,6.8,0,10.2
		c0,1-0.2,1.5-1.3,1.4c-0.6-0.1-1.2,0.1-1.7,0c-1-0.3-3,1.4-2.2-2.1c0.8-3.6,1.3-7.9-0.5-11.7c-0.4-0.7,0.2-0.9,0.7-0.9
		C124.2,146.2,125,146.2,125.9,146.2C125.9,146.2,125.9,146.2,125.9,146.2z"/>
	<path class="st1" d="M171,370.6c0,1.6,0,3.2,0,4.8c0,0.4-0.1,0.8,0,1.1c2.1,3.4-1,1.8-2.1,2.1c-0.6,0.2-1.3,0.1-1.9,0
		c-0.9-0.1-3,0.5-1.1-1.6c0.3-0.3,0.2-1.1,0.2-1.7c0-2.7,0-5.5,0-8.2c0-0.4,0.1-1-0.1-1.3c-2.2-3.2,0.9-1.7,1.8-2c0.5-0.1,1,0,1.5,0
		c1.3-0.2,1.8,0.3,1.7,1.7C170.9,367.1,171,368.9,171,370.6z"/>
	<path class="st1" d="M136.6,225.6c0,1.9-0.1,3.8,0,5.6c0.2,2.5,0.2,2.4-2.7,2.4c-0.5,0-1,0-1.5,0c-1-0.1-2.8,0.3-1-1.6
		c0.3-0.3,0.2-1,0.2-1.4c0-3,0-5.9,0-8.9c0-0.4,0.1-0.8-0.1-1.1c-2.1-2.7,0.6-1.8,1.5-1.9c3.4-0.1,3.4,0,3.4,3.5
		C136.6,223.5,136.6,224.6,136.6,225.6z"/>
	<path class="st1" d="M256.7,443.2c0,1.9-0.1,3.8,0,5.6c0.2,2.5,0.2,2.4-2.7,2.4c-0.5,0-1,0-1.5,0c-1-0.1-2.8,0.3-1-1.6
		c0.3-0.3,0.2-1,0.2-1.4c0-3,0-5.9,0-8.9c0-0.4,0.1-0.8-0.1-1.1c-2.1-2.7,0.6-1.8,1.5-1.9c3.4-0.1,3.5,0,3.5,3.5
		C256.7,441,256.7,442.1,256.7,443.2z"/>
	<path class="st1" d="M113.8,146.2c0.5,0,1,0,1.5,0c0.9,0.1,2.8-0.4,1,1.5c-0.3,0.3-0.2,1.1-0.2,1.7c0,3.4,0,6.8,0,10.2
		c0,1.1-0.3,1.6-1.4,1.5c-0.2,0-0.4,0-0.6,0c-3.1,0-3,0-2.9-2.6c0.1-3.2,0-6.4,0-9.5c0-0.1,0-0.1,0-0.2
		C111,146.2,111,146.2,113.8,146.2z"/>
	<path class="st1" d="M165.2,297.8c-0.5-1.7,0.9-4-0.9-5.9c-0.4-0.4,0.1-0.8,0.6-0.8c1.8,0,3.6,0,5.4,0c0.5,0,0.9,0.5,0.5,0.9
		c-1.3,1.1-0.7,2.6-0.7,3.8c-0.1,2.3,0,4.6,0,6.9c0,0.6-0.1,1.3,0.4,1.8c0.4,0.4,1.2,0.9,0.7,1.5c-0.4,0.5-1.2,0.3-1.9,0.1
		c-2.6-0.6-4.6-1.5-4.2-4.9C165.3,300.3,165.2,299.2,165.2,297.8z"/>
	<path class="st1" d="M181.2,305.3c1.2-0.7,1.4-1.7,1.4-2.9c-0.1-3.2,0-6.4-0.1-9.6c0-1.4,0.4-2,1.8-1.8c0.6,0.1,1.2,0.1,1.7,0
		c1.2-0.2,1.5,0.4,1.4,1.5c-0.1,3.3,0,6.5,0,9.8c0,0.9-0.3,1.8,0.6,2.6c0.5,0.4,0.2,1-0.4,1c-2.1,0-4.1,0-6.2,0
		C181.4,305.7,181.3,305.5,181.2,305.3z"/>
	<path class="st1" d="M207.9,450.8c1.2-0.8,1.3-1.9,1.2-3.1c-0.1-3.2,0.1-6.4-0.1-9.6c-0.1-1.5,0.4-1.9,1.8-1.8
		c0.6,0.1,1.2,0.1,1.7,0c1.2-0.2,1.4,0.4,1.4,1.5c-0.1,3.3,0,6.5,0,9.8c0,0.9-0.3,1.8,0.6,2.6c0.5,0.4,0.2,1-0.4,1
		C212.2,451.2,210.1,451.5,207.9,450.8z"/>
	<path class="st1" d="M198.4,444c0,1.8-0.1,3.6,0,5.4c0.1,1.6-0.5,2.1-1.9,1.8c-0.4-0.1-0.7,0.1-1.1,0c-1.1-0.3-3.2,1.3-2.1-2.2
		c1-3.2,0.2-7,0.2-10.5c0-0.4-0.2-0.6-0.5-0.9c-0.9-0.9-0.3-1.2,0.6-1.2c1.2,0,2.3,0.1,3.5,0c1.1-0.1,1.3,0.4,1.3,1.4
		C198.4,439.8,198.4,441.9,198.4,444z"/>
	<path class="st1" d="M265.4,370.5c0,2-0.6,4.2,0.1,5.8c1.5,3.4-0.9,2.1-2.2,2.3c-0.7,0.1-1.4,0-2.2,0c-0.6,0-1.3,0.2-1.6-0.3
		c-0.6-0.8,0.6-0.8,0.7-1.2c0.2-0.5,0.2-1.1,0.2-1.7c0-3.3,0.1-6.7,0-10c0-1.3,0.3-1.9,1.7-1.7c0.7,0.1,1.4,0.1,2.2,0
		c0.9-0.1,1.1,0.3,1.1,1.1C265.3,366.8,265.4,368.6,265.4,370.5z"/>
	<path class="st1" d="M224.1,451.2c-1,0.2-1.4-0.3-1.6-1.2c-0.8-3.1-1.7-6.1-2.5-9.2c-0.2-0.6-0.3-1.3-0.5-1.9
		c-0.9-2.5-0.9-2.5,2-2.5c0.7,0,1.4,0,2.2,0c1.1,0,2.3-0.2,1,1.6c-0.6,0.9,0.2,1.9,0.5,2.9c1,3.1,1.8,6.1,0.4,9.2
		C225.2,450.8,225.1,451.5,224.1,451.2z"/>
	<path class="st1" d="M175,371.4c2.2,0.4,3.1,1.7,2.9,3.8c-0.1,0.6-0.2,1.2,1,1c0.9-0.2,0.5,0.8,0.2,1.3c-0.9,1.3-2.1,1.7-3.6,1.5
		c-1.5-0.3-2.2-1.2-2.4-2.7c-0.3-1.5,0.7-3.4-1.2-4.5c-0.1-0.1,0-0.6,0.1-0.8c1.8-2.1,1.7-4.1,0-6.2c-0.6-0.8,0.1-1,0.9-1.1
		c2.2-0.1,4.2,0.9,4.8,2.6C178.4,368.3,177.7,369.5,175,371.4z"/>
	<path class="st1" d="M260.6,444.1c2.2,0.4,3.2,1.6,3,3.7c0,0.4-0.2,0.9,0.2,1.2c1.2,0.8,1.2,1.4,0,2.2c-2.2,1.4-4.8,0.1-5.1-2.5
		c-0.2-1.4,0.6-3.1-1.2-4.1c-0.3-0.2-0.1-0.7,0.1-1c1.7-2,1.7-4,0-6c-0.5-0.7-0.2-1.1,0.7-1.2c2.2-0.2,4.3,0.9,5,2.7
		C264.1,441,263.4,442.3,260.6,444.1z"/>
	<path class="st1" d="M145.3,232.4c-0.7,0.5-1.3,1.1-2,1.5c-2.1,1-4.2-0.2-4.5-2.4c-0.2-1.5,0.7-3.4-1.3-4.5c-0.1,0,0-0.6,0.1-0.8
		c1.8-2.1,1.7-4.1,0-6.2c-0.6-0.8,0.1-1,0.9-1.1c2.3-0.1,4.3,0.9,4.9,2.8c0.8,2.5-0.7,3.8-2.9,4.9c2.3,0.5,3.3,1.7,3.1,3.8
		c0,0.6-0.3,1.4,0.9,1C145.1,231.1,145,232,145.3,232.4L145.3,232.4z"/>
	<path class="st1" d="M278.4,371.5c0-4.2,2-7.2,5-7.9c0.4-0.1,0.9-0.4,1.2,0c0.3,0.4,0.1,0.8-0.3,1.1c-0.6,0.4-0.5,1.1-0.5,1.8
		c0,3.1,0,6.2,0,9.3c0,0.4,0,0.9,0.2,1.3c0.2,0.5,1.3,0.9,0.7,1.6c-0.6,0.6-1.5,0-2.2-0.3C279.3,376.9,278.6,374.2,278.4,371.5z"/>
	<path class="st1" d="M236.2,443.9c0-3.8,2-6.9,4.9-7.6c0.4-0.1,0.9-0.4,1.2,0c0.3,0.4,0.2,0.8-0.3,1.1c-0.7,0.5-0.6,1.3-0.6,2
		c0,3,0,5.9,0,8.9c0,0.6-0.2,1.2,0.2,1.7c0.3,0.4,1.1,0.8,0.6,1.4c-0.5,0.6-1.2,0.1-1.8-0.1C237.9,450.3,236.2,447.4,236.2,443.9z"
		/>
	<path class="st1" d="M150,371.1c0-3.8,2.1-6.9,5-7.5c0.4-0.1,0.9-0.4,1.2,0.1c0.1,0.2,0,0.7-0.1,0.8c-1.2,0.8-0.8,1.9-0.8,3
		c0,2.7,0,5.4,0,8c0,0.6-0.2,1.3,0.3,1.9c0.4,0.4,1,0.8,0.5,1.4c-0.5,0.5-1.1,0-1.6-0.2C151.8,377.7,150,374.7,150,371.1z"/>
	<path class="st1" d="M149.1,298.6c0-3.7,1.8-6.7,4.7-7.5c0.5-0.1,1-0.6,1.4-0.1c0.4,0.5,0.1,0.9-0.4,1.2c-0.5,0.3-0.4,0.9-0.4,1.4
		c0,3.3,0,6.5,0,9.8c0,0.4,0.1,0.9,0.2,1.2c0.3,0.5,1.1,0.8,0.6,1.4c-0.5,0.7-1.2,0.1-1.8-0.1C150.9,305,149.2,302.1,149.1,298.6z"
		/>
	<path class="st1" d="M249.7,443.7c0.1,3.9-2,7-5.1,7.7c-0.4,0.1-0.9,0.4-1.1-0.1c-0.2-0.3-0.1-0.7,0.3-1c0.9-0.5,0.7-1.4,0.7-2.1
		c0-2.9,0-5.8,0-8.7c0-0.6,0.2-1.3-0.3-1.9c-0.4-0.4-0.9-0.7-0.6-1.2c0.4-0.7,1.1-0.2,1.6,0C247.8,437.2,249.7,440.1,249.7,443.7z"
		/>
	<path class="st1" d="M162.7,298.2c0,4.1-2.1,7.3-5.1,7.9c-0.3,0.1-0.7,0.4-1,0c-0.3-0.4-0.2-0.8,0.2-1.1c0.7-0.5,0.6-1.2,0.6-2
		c0-3,0-6.1,0-9.1c0-0.5,0-1-0.2-1.5c-0.2-0.5-1.1-0.8-0.6-1.4c0.6-0.7,1.4-0.1,2,0.2C161.7,292.6,162.5,295.4,162.7,298.2z"/>
	<path class="st1" d="M163.6,370.9c0,4.1-2,7.1-5,7.8c-0.4,0.1-0.9,0.5-1.2,0c-0.3-0.4-0.1-0.8,0.3-1.1c0.6-0.4,0.6-1.1,0.6-1.8
		c0-3.1,0-6.2,0-9.3c0-0.4,0-0.9-0.2-1.3c-0.2-0.5-1.3-0.9-0.7-1.6c0.6-0.6,1.5,0,2.2,0.3C162.6,365.5,163.3,368.2,163.6,370.9z"/>
	<path class="st1" d="M291.9,371.1c0,3.9-2.1,7-5.1,7.7c-0.4,0.1-0.9,0.4-1.1-0.1c-0.2-0.3-0.1-0.7,0.3-1c0.9-0.5,0.6-1.4,0.6-2.2
		c0-2.9,0-5.8,0-8.7c0-0.6,0-1.2-0.2-1.7c-0.2-0.5-1.3-0.9-0.5-1.6c0.5-0.5,1.3,0,1.8,0.3C290.2,364.8,291.9,367.7,291.9,371.1z"/>
	<path class="st1" d="M171.4,233.7c-0.7,0-1.4,0-2.2,0c-1,0-1.8,0-0.9-1.4c0.5-0.8-0.2-1.8-0.5-2.6c-1.1-2.2-0.8-4,0.8-5.9
		c0.9-1.1,2.8-2.4,0.5-4.1c-0.3-0.2-0.1-0.8,0.4-0.8c1.4-0.1,2.8-0.1,4.1,0c0.8,0.1,0.8,0.7,0.2,1.2c-0.6,0.4-1.2,0.7-1.8,1.2
		c-1.1,1-1.6,2-0.8,3.6c1.3,2.5,1.6,5.4,3.4,7.7c0.6,0.8,0.2,1-0.6,1.1C173.1,233.8,172.3,233.7,171.4,233.7
		C171.4,233.7,171.4,233.7,171.4,233.7z"/>
	<path class="st1" d="M277.4,451.3c-0.6,0-1.2,0.1-1.7,0c-0.9-0.1-2.4,0.4-1.1-1.5c0.5-0.9-0.4-2.2-0.8-3.2
		c-0.8-1.7-0.6-3.1,0.7-4.5c0.6-0.7,1.1-1.5,1.6-2.3c0.3-0.5,0.7-1.1,0.1-1.6c-2.1-1.9-0.3-1.7,0.9-1.7c0.6,0,1.2,0,1.7,0
		c0.6,0,1.3-0.2,1.5,0.5c0.2,0.8-0.6,0.8-1.1,1.1c-2.4,1.5-2.8,2.4-1.7,4.9c1.1,2.4,1.5,5.1,3.2,7.3c0.5,0.6,0.1,1-0.5,1
		C279.3,451.3,278.4,451.2,277.4,451.3C277.4,451.3,277.4,451.3,277.4,451.3z"/>
	<path class="st1" d="M179.6,371.3c-0.1-3.6,2-7,4.9-7.7c0.4-0.1,0.8-0.5,1.2,0c0.3,0.4,0.1,0.8-0.2,1.2c-0.7,0.6-0.6,1.4-0.6,2.2
		c0,2.8,0,5.7,0,8.5c0,0.6,0,1.2,0.2,1.7c0.2,0.6,1.1,1,0.5,1.7c-0.6,0.6-1.4,0-2-0.3C181.3,377.5,179.6,374.4,179.6,371.3z"/>
	<path class="st1" d="M232.4,446.3c-0.4,1.4-0.7,2.8-1,4.2c-0.2,0.8-0.8,0.7-1.4,0.7c-0.5,0-1.2,0.2-1.3-0.7
		c-0.8-4.2-3.4-8.2-1.5-12.8c0.3-0.7,0.3-1.5,1.5-1.5c1.1,0,1.3,0.5,1.5,1.4C230.9,440.6,231.7,443.5,232.4,446.3z"/>
	<path class="st1" d="M432,224.6c-2.2,0.1-4.6-2.1-4.8-4.3c-0.1-2.2,2.3-4.4,4.7-4.5c2.4,0,4.7,2,4.7,4.2
		C436.7,222.3,434.5,224.5,432,224.6z M432.2,219.5c-0.9,0.4-2.5-0.5-2.5,0.7c0,1.2,1.6,0.6,2.6,0.6c0.8,0,2.2,0.5,2.2-0.5
		C434.4,218.9,432.9,219.9,432.2,219.5z"/>
	<path class="st1" d="M344.6,155.9c-2.2,0-4.6-2.2-4.8-4.3c-0.1-2.2,2.3-4.4,4.7-4.5c2.3-0.1,4.7,2,4.7,4.2
		C349.3,153.6,347,155.8,344.6,155.9z M344.7,150.8c-0.4,0-0.7,0-1,0c-0.6,0.1-1.6-0.3-1.6,0.6c0,1,1.1,0.6,1.7,0.7
		c0.2,0,0.4,0.1,0.6,0c0.9-0.2,2.5,0.6,2.5-0.7C346.9,150.3,345.4,151.1,344.7,150.8z"/>
	<path class="st1" d="M241.9,247.9c-1.7-4.1-3.4-8-4.9-11.9c-0.3-0.8-0.6-1.6-1-2.4c-0.5-1-0.3-2.1,0.6-2.8c0.9-0.7,1.3,0.6,1.8,1
		c1.2,0.8,1.7,2,1.9,3.3c0.4,3.1,1.6,6,2.5,9C243.3,245.4,243.3,246.5,241.9,247.9z"/>
	<path class="st1" d="M467.5,422.5c0.8,0,1.9,0.4,2.7,1.3c0.6,0.7,1.5,1.4,1,2.4c-0.5,1.1-1.4,0.1-2.1,0.1c-1.3,0-2.6-0.1-3.9,0
		c-0.4,0-0.9,0.2-0.8,0.8c0.1,0.4,0.4,0.6,0.8,0.6c0.6,0,1.3,0,1.9,0c1.2,0,1.9,0.8,1.9,1.9c0,1.2-0.9,1.7-2.1,1.7
		c-2.1,0-4.6-2.3-4.6-4.4C462.4,424.6,464.7,422.5,467.5,422.5z"/>
	<path class="st1" d="M475.7,362.5c-1.9,0-4.2-1.9-4.5-3.8c-0.3-1.8,1-3.9,3.1-4.6c2.1-0.8,4.4,0,5.4,1.9c0.3,0.5,0.7,1,0.3,1.6
		c-0.4,0.6-0.9,0.4-1.5,0.2c-1.4-0.5-2.9-0.2-4.3-0.2c-0.4,0-1,0.1-1,0.6c0,0.7,0.6,0.7,1.1,0.7c0.6,0,1.2,0,1.7,0
		c1.2,0.1,1.9,0.8,1.8,2C477.7,362.1,476.8,362.5,475.7,362.5z"/>
	<path class="st1" d="M359.1,147.1c1.5,0.1,2.9,0.8,3.7,2.5c0.2,0.5,0.5,0.9,0.1,1.4c-0.4,0.5-0.8,0.4-1.4,0.2
		c-1.4-0.6-2.9-0.2-4.3-0.3c-0.5,0-1.2,0.1-1.1,0.7c0,0.6,0.7,0.6,1.2,0.6c0.6,0,1.2,0,1.7,0c1.1,0.1,1.7,0.8,1.7,1.9
		c0,1.1-0.7,1.6-1.8,1.7c-2,0.2-4.7-2-4.9-4.1C353.9,149.4,356.2,147.1,359.1,147.1z"/>
	<path class="st1" d="M446,219.6c-0.1,0-0.1,0-0.2,0c-0.9,0.2-2.5-0.6-2.5,0.7c0,1.1,1.5,0.6,2.4,0.6c1.4,0.1,2.3,0.7,2.1,2.1
		c-0.1,1.4-1.3,1.6-2.4,1.5c-1.8-0.1-4.1-2.3-4.2-4.1c-0.2-1.9,1.4-4,3.6-4.5c2-0.5,4.3,0.5,5.1,2.3c0.2,0.5,0.5,0.9,0.1,1.4
		c-0.4,0.5-0.8,0.4-1.4,0.2C447.7,219.4,446.8,219.6,446,219.6z"/>
	<path class="st1" d="M383.4,215.8c1.5,0.1,2.9,0.8,3.7,2.5c0.2,0.4,0.5,0.9,0.1,1.4c-0.4,0.5-0.8,0.4-1.4,0.2
		c-1.4-0.6-2.9-0.2-4.3-0.3c-0.5,0-1.2,0.1-1.1,0.7c0,0.6,0.7,0.6,1.2,0.6c0.6,0,1.2,0,1.7,0c1.2,0.1,1.8,0.9,1.7,2
		c-0.1,1.1-0.9,1.5-2,1.5c-2.2,0-4.6-2.2-4.7-4.3C378.4,218,380.6,215.9,383.4,215.8z"/>
	<path class="st1" d="M189.5,371.1c0.6,0,1.2,0,1.7,0c0.9,0,1.6,0.1,0.9,1.2c-0.4,0.7-0.2,1.4-0.3,2.1c0,2.7-1.6,4.4-4.3,4.5
		c-0.9,0.1-1-0.3-0.7-1c0.9-2.1,1.5-4.1-0.3-6.1c-0.4-0.5,0.1-0.8,0.6-0.8C187.9,371.1,188.7,371.1,189.5,371.1
		C189.5,371.1,189.5,371.1,189.5,371.1z"/>
	<path class="st1" d="M242.3,377.5c2.4-1.2,2.2-3.4,2.8-5.1c0.6-1.8,1-3.6,1.6-5.7c1,2.6-0.4,4.5-0.7,6.5c-0.2,1.5-1.7,3,0.3,4.5
		c0.7,0.5-0.3,0.9-0.9,0.9c-2.4,0-4.9,0-7.3,0c-0.3,0-0.8,0.1-0.8-0.4c0-0.4,0.2-0.7,0.6-0.8c1.5-0.4,2.6-1.2,3.1-2.7
		c0.1-0.3,0.4-0.7,0.8-0.5c0.4,0.2,0.4,0.5,0.4,0.9C242.3,375.7,242.3,376.5,242.3,377.5z"/>
	<path class="st1" d="M416.8,363c-1-1.3-2.7-1.7-3.9-2.8c-0.7-0.7-1.5-1.3-2.2-2c-0.6-0.6-1.2-1.3-1.1-2.2c0.1-0.6,0.8-0.6,1.3-0.5
		c1,0.1,2.2-0.5,2.8,0.9c0.8,1.8,2.1,3.3,3.6,4.5c0.4,0.4,1,0.7,1,1.3C418.2,363.2,417.1,362.4,416.8,363
		C416.8,363,416.8,363,416.8,363z"/>
	<path class="st1" d="M383.7,308.6c0-0.4,0-0.7,0-1.1c0-0.7,0.1-1.3,1-1.3c0.8,0,1.1,0.5,1.1,1.3c0,1.5-0.1,3,2.1,1.8
		c0.5-0.3,0.7,0.2,1,0.6c0.8,1.4,0.3,3.3-1,4c-1.6,0.8-2.6,0-3.4-1.3C383.9,311.6,383.7,310.4,383.7,308.6z"/>
	<path class="st1" d="M431.6,239.6c0-0.6-0.1-1.2,0-1.7c0.1-0.6,0.5-0.8,1.1-0.8c0.5,0,0.9,0.2,0.9,0.7c0.2,1.5-0.6,3.8,2.5,2.3
		c0.4-0.2,0.9,1,1,1.7c0.1,1.1,0,2.2-1.2,2.8c-1.4,0.8-2.5,0.4-3.4-0.9C431.8,242.5,431.6,241.1,431.6,239.6z"/>
	<path class="st1" d="M403.8,239.6c0-0.6-0.1-1.2,0-1.7c0.1-0.6,0.5-0.8,1.1-0.8c0.5,0,0.9,0.2,0.9,0.7c0.1,1.5-0.5,3.8,2.5,2.3
		c0.3-0.2,0.9,0.9,1,1.5c0.2,1.1,0.1,2.2-1,2.9c-1.4,0.9-2.6,0.6-3.5-0.8C404,242.5,403.7,241.1,403.8,239.6z"/>
	<path class="st1" d="M344.1,170.4c0,0,0-0.5,0-0.9c0-0.8,0.4-1.2,1.2-1.2c0.8,0,0.9,0.5,0.9,1.2c0,1.3-0.4,3.2,2,1.8
		c0.3-0.2,0.5,0,0.7,0.2c0.7,0.8,0.8,1.8,0.6,2.9c-0.2,1-0.9,1.7-1.9,1.8c-1,0.2-1.9-0.2-2.4-1.1
		C344.4,173.8,344.1,172.4,344.1,170.4z"/>
	<path class="st1" d="M175.5,291.1c0.6,0.1,1.4-0.3,1.8,0.3c0.5,0.8-0.6,1-0.8,1.5c-0.4,0.7-0.4,1.4-0.4,2.1c0,2.2,0.1,4.4,0,6.5
		c-0.1,2-0.7,3.7-2.8,4.5c-0.3,0.1-0.7,0.4-0.9,0c-0.2-0.4-0.2-0.9,0.3-1.1c2.2-0.9,2.2-2.8,2.2-4.7c0-1.8,0-3.6,0-5.4
		c0-0.7,0-1.3-0.4-1.9c-0.3-0.5-1.3-0.8-0.8-1.6C174,290.8,174.8,291.2,175.5,291.1z"/>
	<path class="st1" d="M382.8,309.3c0,1.2,0,2.4,0.4,3.6c0.3,0.8,0.6,1.9-0.7,2c-1,0-2.4-0.2-2.4-1.6c0-2.1,0.3-4.2,0.4-6.2
		c0.1-0.7,0.5-0.8,1.1-0.8c0.6,0,1.2,0.2,1.2,0.9C382.9,307.9,382.8,308.6,382.8,309.3z"/>
	<path class="st1" d="M425.5,376.1c-0.2,1.3-1,2.2-2.5,2.4c-1.3,0.2-2.8-1.3-2.6-2.6c0.1-1.4,1-2.4,2.5-2.6
		C424.1,373.2,425.5,374.6,425.5,376.1z"/>
	<path class="st1" d="M412.8,224.6c1.5,0.2,2.5,1.1,2.5,2.5c0,1.5-1,2.6-2.6,2.6c-1.5,0-2.4-1-2.5-2.5
		C410.2,225.7,411.3,224.9,412.8,224.6z"/>
	<path class="st1" d="M484.2,362.5c1.5,0.2,2.5,1,2.5,2.5c0,1.5-0.9,2.6-2.5,2.6c-1.5,0-2.5-1-2.5-2.4
		C481.6,363.6,482.6,362.8,484.2,362.5z"/>
	<path class="st1" d="M415.4,233.8c-0.3,1.4-1,2.5-2.5,2.5c-1.6,0-2.6-1-2.5-2.6c0-1.6,1.1-2.6,2.7-2.5
		C414.4,231.3,415.2,232.3,415.4,233.8z"/>
	<path class="st1" d="M513.7,370.8c0.6-0.1,0.6-0.7,1-1c1-0.7,2-0.9,3-0.2c1,0.7,1.5,1.6,1.1,2.8c-0.4,1.1-1.1,1.9-2.3,1.9
		c-1.2,0-2-0.7-2.4-1.8C513.8,371.9,513.8,371.3,513.7,370.8C513.8,370.8,513.7,370.8,513.7,370.8z"/>
	<path class="st1" d="M486.7,371.6c-0.2,1.4-0.9,2.5-2.4,2.5c-1.6,0.1-2.6-0.9-2.7-2.5c0-1.6,1-2.6,2.5-2.6
		C485.7,369.1,486.5,370.1,486.7,371.6z"/>
	<path class="st1" d="M175.7,233.3c3.4-3,2.7-7.5,4.6-11.1c0.9,1.7-0.1,3.2-0.3,4.7c-0.2,2-2.5,4,0,6.1c0.3,0.2-0.1,0.7-0.5,0.7
		C178.2,233.7,176.9,234,175.7,233.3z"/>
	<path class="st1" d="M145.2,232.4c1.6,0.2,1.8-1.1,2.1-2.1c0.8-2.7,1.5-5.4,2.4-8.3c1,1.9,0,3.4-0.2,4.9c-0.2,2-2.5,4,0,6
		c0.1,0.1,0,0.5-0.1,0.6c-1,0.5-2.1,0.2-3.2,0.2C145.3,233.7,145.4,233,145.2,232.4C145.3,232.4,145.2,232.4,145.2,232.4z"/>
	<path class="st1" d="M193.2,378c3.2-3,2.7-7.4,4.4-10.9c0.6,1.6,0.6,1.6-0.1,4.2c-0.3,1.2-0.7,2.5-1.1,3.7c-0.1,0.5-0.3,1-0.1,1.5
		c0.5,2.1,0.3,2.4-2.2,2C193.7,378.5,193.4,378.4,193.2,378z"/>
	<path class="st1" d="M100.1,149.5c0.9,2.9-0.6,5.3-1,7.8c-0.1,0.8-0.7,1.7,0.2,2.4c0.4,0.3,1,0.4,0.6,1.1c-0.3,0.4-0.8,0.3-1.2,0.3
		c-0.5,0-1,0-1.5,0c-0.5,0-1.1,0.1-1.3-0.5c-0.3-0.7,0.5-0.7,0.9-1c0.8-0.7,1-1.6,1.2-2.5C98.6,154.6,99.3,152,100.1,149.5z"/>
	<path class="st1" d="M120.2,221.6c0.9,3.1-0.6,5.3-1,7.7c-0.2,1.2-1.1,2.5,0.6,3.4c0.4,0.2,0.3,0.7-0.1,0.8c-1.2,0.3-2.4,0.4-3.6,0
		c-0.4-0.1-0.5-0.6-0.1-0.8c2.5-1.6,2-4.5,3-6.7C119.5,224.8,119.7,223.5,120.2,221.6z"/>
	<path class="st1" d="M191.8,366.4c0,0.4,0,0.7,0,1.1c-0.1,0.6,0.3,1.5-0.6,1.6c-0.9,0.2-0.8-0.8-1.1-1.4c-0.5-1.4-1.3-2.6-2.8-3
		c-0.5-0.1-0.8-0.4-0.6-0.9c0.2-0.5,0.7-0.3,1.1-0.2c1.1,0.1,2.1,0.9,3.2,0c0.4-0.3,0.7,0.3,0.7,0.7
		C191.9,364.9,191.8,365.6,191.8,366.4C191.8,366.4,191.8,366.4,191.8,366.4z"/>
	<path class="st1" d="M308.6,373.3c1.4,1.8,2.6,3.5,3.9,5.2c0,0,0,0.2,0,0.2c-0.2,0.3-0.6,0.4-0.8,0.2c-1.1-1.1-3,0.8-3.6-0.7
		c-0.5-1.2-0.1-2.8-0.1-4.3C308,373.6,308.3,373.3,308.6,373.3z"/>
	<path class="st1" d="M121.2,158.8c-0.2,0.6,0.5,1.8-0.5,2.1c-1.1,0.3-2.3,0.2-3.4,0c-0.7-0.2-0.4-1,0.2-1.2
		c1.2-0.5,1.7-1.4,2.2-2.5c0.2-0.5,0.2-1.3,0.9-1.2c0.9,0.2,0.5,1,0.6,1.6C121.3,158,121.2,158.4,121.2,158.8z"/>
	<path class="st1" d="M133.4,158.6c0,2.1-2,3.4-3.9,2.4c-0.7-0.4-0.5-1,0.1-1.2c1.2-0.5,1.7-1.4,2.2-2.5c0.2-0.5,0.2-1.5,1.1-1.2
		c0.7,0.2,0.4,1,0.5,1.5C133.4,157.9,133.4,158.3,133.4,158.6z"/>
	<path class="st1" d="M144.8,297.2c0.3-0.9,0.7-1.8,1.1-2.8c0.3-0.7,0.6-1.4-0.2-1.9c-0.3-0.2-0.9-0.4-0.7-0.9
		c0.2-0.6,0.8-0.5,1.3-0.5c0.8,0,1.6,0,2.4,0.1c0.7,0.1,0.9,0.8,0.4,1.1c-1.8,1-2,2.9-2.7,4.5C145.9,297.7,145.4,297.5,144.8,297.2
		C144.8,297.2,144.8,297.2,144.8,297.2z"/>
	<path class="st1" d="M232.9,444.2c-0.6-0.8-0.7-1.7-0.5-2.8c0.3-1.3,1.4-2.8-0.4-4.1c-0.4-0.3,0.1-0.8,0.5-0.8
		c0.9-0.1,1.7-0.1,2.6,0c0.5,0,0.9,0.5,0.4,0.9C233.3,439.1,234,442,232.9,444.2z"/>
	<path class="st1" d="M318.4,366.2c0,0.5,0,1,0,1.5c0,0.4-0.1,0.9-0.7,0.9c-0.4,0-0.6-0.3-0.7-0.7c-0.4-1.5-1.1-2.6-2.6-3.2
		c-0.4-0.2-0.5-0.5-0.4-0.9c0.2-0.7,0.7-0.3,1-0.2c0.9,0.2,1.6,0.8,2.6,0c0.4-0.3,0.7,0.3,0.7,0.7
		C318.5,364.9,318.4,365.5,318.4,366.2z"/>
	<path class="st1" d="M202,436.4c0.6,0.2,1.7-0.5,1.9,0.5c0.2,1.2,0.2,2.5-0.1,3.6c-0.2,0.7-0.9,0.2-1.1-0.2
		c-0.5-1.3-1.3-2.2-2.7-2.5c-0.4-0.1-0.5-0.5-0.5-0.8c0-0.5,0.4-0.5,0.8-0.5C200.9,436.4,201.4,436.4,202,436.4z"/>
	<path class="st1" d="M204,449.1c-0.2,0.6,0.4,1.9-0.4,2.1c-1.2,0.3-2.6,0.2-3.8,0c-0.6-0.1-0.4-0.9,0.3-1.2c1.1-0.4,2-1.1,2.5-2.2
		c0.2-0.5,0.4-1,1-0.9c0.7,0.2,0.4,0.8,0.4,1.3C204.1,448.4,204,448.7,204,449.1z"/>
	<path class="st1" d="M217.7,438.9c0,0.2,0,0.4,0,0.7c-0.1,0.7,0.3,1.8-0.4,1.9c-1,0.1-0.8-1.1-1.1-1.8c-0.2-0.4-0.3-0.8-0.5-1.2
		c-0.4-0.6-1.2-1.2-0.7-1.9c0.4-0.5,1.4-0.3,2.1-0.2c1.1,0.2,0.4,1.2,0.6,1.8C217.7,438.5,217.7,438.7,217.7,438.9z"/>
	<path class="st1" d="M191.1,293.9c-0.3,0.7,0.6,2.1-0.6,2.2c-0.9,0.1-0.7-1.3-1-2.1c-0.1-0.3-0.2-0.5-0.4-0.8
		c-0.3-0.6-1.2-1.1-0.7-1.9c0.4-0.6,1.4-0.4,2-0.2c1.2,0.2,0.5,1.3,0.7,1.9C191.2,293.3,191.1,293.5,191.1,293.9z"/>
	<path class="st1" d="M269,366.4c0,0.1,0,0.1,0,0.2c-0.1,0.8,0.4,2-0.4,2.2c-1.1,0.2-0.9-1.2-1.1-1.9c-0.1-0.3-0.2-0.5-0.3-0.8
		c-0.3-0.7-1.4-1.2-0.8-2.1c0.4-0.6,1.4-0.4,2-0.2c1.2,0.3,0.4,1.5,0.6,2.2C269,366.1,269,366.3,269,366.4z"/>
	<path class="st1" d="M201.8,444.1c-0.2,0.7,0.5,2.2-0.4,2.3c-1.2,0.2-1.1-1.8-2.1-2.4c-0.2-0.1,1.5-3.1,1.8-3.1
		c0.5-0.1,0.6,0.3,0.6,0.6C201.8,442.3,201.8,443,201.8,444.1z"/>
	<path class="st1" d="M256.6,366.1c0.2-0.7-0.5-1.7,0.4-2.2c0.6-0.3,1.6-0.2,2.1,0.1c0.7,0.4,0.1,1.1-0.3,1.7
		c-0.5,0.7-0.7,1.4-0.8,2.2c-0.1,0.5-0.2,1.1-0.8,1.1c-0.6,0-0.6-0.7-0.6-1.2C256.6,367.2,256.6,366.7,256.6,366.1z"/>
	<path class="st1" d="M205.3,438.7c0.2-0.6-0.5-1.7,0.5-2.2c0.6-0.3,1.6-0.2,2.1,0.1c0.6,0.4,0,1.1-0.3,1.7c-0.3,0.6-0.6,1.3-0.8,2
		c-0.2,0.5-0.2,1.4-0.9,1.3c-0.7-0.1-0.6-0.9-0.6-1.5C205.3,439.7,205.3,439.2,205.3,438.7z"/>
	<path class="st1" d="M178.7,293.4c0.2-0.7-0.5-1.7,0.5-2.2c0.6-0.3,1.6-0.2,2.1,0.1c0.6,0.4,0.1,1.1-0.3,1.7
		c-0.5,0.7-0.7,1.4-0.8,2.2c-0.1,0.5-0.2,1.1-0.8,1.1c-0.6-0.1-0.6-0.7-0.6-1.2C178.7,294.5,178.7,294,178.7,293.4z"/>
	<path class="st3" d="M302.7,81.3c0.8-2.5,1.5-4.8,2.3-7c0.3-0.7,0.1-1-0.5-1.5c-1.9-1.3-3.8-2.8-5.8-4.1c0.2-0.4,0.5-0.2,0.8-0.2
		c2.2,0,4.4,0,6.6,0c0.6,0,0.8-0.2,1-0.7c0.6-1.9,1.2-3.9,1.9-5.8c0.1-0.4,0.3-0.8,0.5-1.4c0.8,2.4,1.6,4.6,2.2,6.8
		c0.3,0.9,0.6,1.1,1.5,1.1c2.3-0.1,4.6,0,7.3,0c-2.2,1.6-4.1,3-6.1,4.4c-0.6,0.4-0.8,0.7-0.5,1.4c0.8,2.2,1.5,4.5,2.3,7
		c-2.1-1.5-4-2.8-5.9-4.2c-0.7-0.5-1.1-0.5-1.8,0C306.7,78.4,304.8,79.7,302.7,81.3z"/>
</g>
</svg>
